Toren-Pro­por­tion­al.ufo
<glyph name="ampersand" format="1">
  <advance width="576"/>
  <unicode hex="0026"/>
  <outline>
    <contour>
      <point x="266" y="484" type="curve"/>
      <point x="238" y="540"/>
      <point x="224" y="576"/>
      <point x="224" y="616" type="curve" smooth="yes"/>
      <point x="224" y="644"/>
      <point x="240" y="672"/>
      <point x="272" y="672" type="curve" smooth="yes"/>
      <point x="304" y="672"/>
      <point x="320" y="644"/>
      <point x="320" y="616" type="curve" smooth="yes"/>
      <point x="320" y="576"/>
      <point x="310" y="528"/>
    </contour>
    <contour>
      <point x="248" y="56" type="curve" smooth="yes"/>
      <point x="176" y="56"/>
      <point x="120" y="128"/>
      <point x="120" y="192" type="curve" smooth="yes"/>
      <point x="120" y="256"/>
      <point x="150" y="304"/>
      <point x="220" y="374" type="curve" smooth="yes"/>
      <point x="222" y="376" type="line"/>
      <point x="231" y="360"/>
      <point x="239" y="346"/>
      <point x="244" y="336" type="curve" smooth="yes"/>
      <point x="354" y="115" type="line"/>
      <point x="328" y="82"/>
      <point x="281" y="56"/>
    </contour>
    <contour>
      <point x="412" y="0" type="line"/>
      <point x="544" y="0" type="line"/>
      <point x="544" y="24" type="line"/>
      <point x="480" y="56" type="line"/>
      <point x="438" y="140" type="line"/>
      <point x="464" y="192" type="line" smooth="yes"/>
      <point x="488" y="240"/>
      <point x="504" y="320"/>
      <point x="504" y="392" type="curve" smooth="yes"/>
      <point x="504" y="424"/>
      <point x="480" y="448"/>
      <point x="448" y="448" type="curve" smooth="yes"/>
      <point x="416" y="448"/>
      <point x="392" y="424"/>
      <point x="392" y="392" type="curve" smooth="yes"/>
      <point x="392" y="360"/>
      <point x="416" y="336"/>
      <point x="448" y="336" type="curve"/>
      <point x="448" y="305"/>
      <point x="433" y="244"/>
      <point x="410" y="196" type="curve"/>
      <point x="292" y="432" type="line"/>
      <point x="330" y="470"/>
      <point x="392" y="536"/>
      <point x="392" y="608" type="curve" smooth="yes"/>
      <point x="392" y="680"/>
      <point x="352" y="720"/>
      <point x="272" y="720" type="curve" smooth="yes"/>
      <point x="192" y="720"/>
      <point x="136" y="664"/>
      <point x="136" y="584" type="curve" smooth="yes"/>
      <point x="136" y="542"/>
      <point x="165" y="480"/>
      <point x="194" y="426" type="curve"/>
      <point x="190" y="422" type="line" smooth="yes"/>
      <point x="98" y="330"/>
      <point x="32" y="272"/>
      <point x="32" y="176" type="curve" smooth="yes"/>
      <point x="32" y="64"/>
      <point x="128" y="-16"/>
      <point x="232" y="-16" type="curve" smooth="yes"/>
      <point x="309" y="-16"/>
      <point x="357" y="27"/>
      <point x="382" y="60" type="curve"/>
    </contour>
  </outline>
</glyph>
<glyph name="asterisk" format="1">
  <advance width="400"/>
  <unicode hex="002A"/>
  <outline>
    <contour>
      <point x="308" y="404" type="curve"/>
      <point x="330" y="418"/>
      <point x="338" y="452"/>
      <point x="306" y="480" type="curve" smooth="yes"/>
      <point x="233" y="541" type="line"/>
      <point x="328" y="548" type="line" smooth="yes"/>
      <point x="370" y="550"/>
      <point x="384" y="584"/>
      <point x="374" y="608" type="curve"/>
      <point x="366" y="634"/>
      <point x="338" y="654"/>
      <point x="300" y="630" type="curve" smooth="yes"/>
      <point x="221" y="582" type="line"/>
      <point x="244" y="672" type="line" smooth="yes"/>
      <point x="254" y="714"/>
      <point x="226" y="736"/>
      <point x="200" y="736" type="curve" smooth="yes"/>
      <point x="174" y="736"/>
      <point x="146" y="714"/>
      <point x="156" y="672" type="curve" smooth="yes"/>
      <point x="179" y="582" type="line"/>
      <point x="100" y="630" type="line" smooth="yes"/>
      <point x="62" y="654"/>
      <point x="34" y="634"/>
      <point x="26" y="608" type="curve"/>
      <point x="16" y="584"/>
      <point x="30" y="550"/>
      <point x="72" y="548" type="curve" smooth="yes"/>
      <point x="164" y="542" type="line"/>
      <point x="92" y="484" type="line" smooth="yes"/>
      <point x="58" y="458"/>
      <point x="66" y="424"/>
      <point x="86" y="408" type="curve" smooth="yes"/>
      <point x="108" y="390"/>
      <point x="142" y="392"/>
      <point x="160" y="430" type="curve" smooth="yes"/>
      <point x="199" y="517" type="line"/>
      <point x="234" y="430" type="line" smooth="yes"/>
      <point x="252" y="390"/>
      <point x="288" y="388"/>
    </contour>
  </outline>
</glyph>
<glyph name="plus" format="1">
  <advance width="512"/>
  <unicode hex="002B"/>
  <outline>
    <contour>
      <point x="288" y="272" type="line"/>
      <point x="288" y="480" type="line"/>
      <point x="224" y="480" type="line"/>
      <point x="224" y="272" type="line"/>
      <point x="32" y="272" type="line"/>
      <point x="32" y="208" type="line"/>
      <point x="224" y="208" type="line"/>
      <point x="224" y="0" type="line"/>
      <point x="288" y="0" type="line"/>
      <point x="288" y="208" type="line"/>
      <point x="480" y="208" type="line"/>
      <point x="480" y="272" type="line"/>
    </contour>
  </outline>
</glyph>
<glyph name="hyphen" format="1">
  <advance width="288"/>
  <unicode hex="002D"/>
  <outline>
    <contour>
      <point x="272" y="288" type="line"/>
      <point x="16" y="288" type="line"/>
      <point x="16" y="224" type="line"/>
      <point x="272" y="224" type="line"/>
    </contour>
  </outline>
</glyph>
<glyph name="slash" format="1">
  <advance width="416"/>
  <unicode hex="002F"/>
  <outline>
    <contour>
      <point x="352" y="768" type="line"/>
      <point x="0" y="-64" type="line"/>
      <point x="64" y="-64" type="line"/>
      <point x="416" y="768" type="line"/>
    </contour>
  </outline>
</glyph>
<glyph name="four" format="1">
  <advance width="560"/>
  <unicode hex="0034"/>
  <outline>
    <contour>
      <point x="476" y="24" type="line"/>
      <point x="412" y="48" type="line"/>
      <point x="412" y="192" type="line"/>
      <point x="508" y="192" type="line"/>
      <point x="508" y="240" type="line"/>
      <point x="412" y="240" type="line"/>
      <point x="412" y="704" type="line"/>
      <point x="328" y="704" type="line"/>
      <point x="96" y="240" type="line"/>
      <point x="96" y="192" type="line"/>
      <point x="320" y="192" type="line"/>
      <point x="320" y="48" type="line"/>
      <point x="256" y="24" type="line"/>
      <point x="256" y="0" type="line"/>
      <point x="476" y="0" type="line"/>
    </contour>
    <contour>
      <point x="320" y="560" type="line"/>
      <point x="320" y="240" type="line"/>
      <point x="160" y="240" type="line"/>
    </contour>
  </outline>
</glyph>
<glyph name="eight" format="1">
  <advance width="560"/>
  <unicode hex="0038"/>
  <outline>
    <contour>
      <point x="288" y="-16" type="curve" smooth="yes"/>
      <point x="432" y="-16"/>
      <point x="504" y="64"/>
      <point x="504" y="176" type="curve" smooth="yes"/>
      <point x="504" y="224"/>
      <point x="496" y="256"/>
      <point x="416" y="336" type="curve" smooth="yes"/>
      <point x="346" y="406" type="line"/>
      <point x="409" y="455"/>
      <point x="456" y="496"/>
      <point x="456" y="584" type="curve" smooth="yes"/>
      <point x="456" y="624"/>
      <point x="416" y="720"/>
      <point x="296" y="720" type="curve" smooth="yes"/>
      <point x="176" y="720"/>
      <point x="120" y="640"/>
      <point x="120" y="560" type="curve" smooth="yes"/>
      <point x="120" y="504"/>
      <point x="160" y="448"/>
      <point x="200" y="408" type="curve" smooth="yes"/>
      <point x="238" y="370" type="line"/>
      <point x="150" y="292"/>
      <point x="96" y="224"/>
      <point x="96" y="144" type="curve" smooth="yes"/>
      <point x="96" y="48"/>
      <point x="184" y="-16"/>
    </contour>
    <contour>
      <point x="272" y="480" type="line" smooth="yes"/>
      <point x="240" y="512"/>
      <point x="208" y="560"/>
      <point x="208" y="584" type="curve" smooth="yes"/>
      <point x="208" y="632"/>
      <point x="248" y="672"/>
      <point x="296" y="672" type="curve" smooth="yes"/>
      <point x="344" y="672"/>
      <point x="384" y="632"/>
      <point x="384" y="584" type="curve" smooth="yes"/>
      <point x="384" y="519"/>
      <point x="358" y="487"/>
      <point x="312" y="440" type="curve"/>
    </contour>
    <contour>
      <point x="288" y="32" type="curve" smooth="yes"/>
      <point x="216" y="32"/>
      <point x="176" y="104"/>
      <point x="176" y="160" type="curve" smooth="yes"/>
      <point x="176" y="197"/>
      <point x="196" y="253"/>
      <point x="272" y="336" type="curve"/>
      <point x="344" y="264" type="line" smooth="yes"/>
      <point x="374" y="234"/>
      <point x="400" y="200"/>
      <point x="400" y="160" type="curve" smooth="yes"/>
      <point x="400" y="104"/>
      <point x="360" y="32"/>
    </contour>
  </outline>
</glyph>
<glyph name="nine" format="1">
  <advance width="560"/>
  <unicode hex="0039"/>
  <outline>
    <contour>
      <point x="160" y="-16" type="line"/>
      <point x="328" y="-16"/>
      <point x="544" y="176"/>
      <point x="544" y="448" type="curve" smooth="yes"/>
      <point x="544" y="608"/>
      <point x="448" y="704"/>
      <point x="304" y="704" type="curve" smooth="yes"/>
      <point x="160" y="704"/>
      <point x="64" y="608"/>
      <point x="64" y="480" type="curve" smooth="yes"/>
      <point x="64" y="352"/>
      <point x="160" y="256"/>
      <point x="304" y="256" type="curve" smooth="yes"/>
      <point x="347" y="256"/>
      <point x="388" y="272"/>
      <point x="422" y="292" type="curve"/>
      <point x="399" y="183"/>
      <point x="322" y="69"/>
      <point x="160" y="24" type="curve"/>
    </contour>
    <contour>
      <point x="304" y="304" type="curve" smooth="yes"/>
      <point x="224" y="304"/>
      <point x="160" y="368"/>
      <point x="160" y="480" type="curve" smooth="yes"/>
      <point x="160" y="592"/>
      <point x="224" y="656"/>
      <point x="304" y="656" type="curve" smooth="yes"/>
      <point x="384" y="656"/>
      <point x="448" y="592"/>
      <point x="448" y="480" type="curve" smooth="yes"/>
      <point x="448" y="384"/>
      <point x="400" y="304"/>
    </contour>
  </outline>
</glyph>
<glyph name="less" format="1">
  <advance width="480"/>
  <unicode hex="003C"/>
  <outline>
    <contour>
      <point x="448" y="64" type="line"/>
      <point x="96" y="240" type="line"/>
      <point x="448" y="416" type="line"/>
      <point x="448" y="480" type="line"/>
      <point x="32" y="272" type="line"/>
      <point x="32" y="208" type="line"/>
      <point x="448" y="0" type="line"/>
    </contour>
  </outline>
</glyph>
<glyph name="at" format="1">
  <advance width="672"/>
  <unicode hex="0040"/>
  <outline>
    <contour>
      <point x="352" y="-16" type="curve" smooth="yes"/>
      <point x="414" y="-16"/>
      <point x="484" y="0"/>
      <point x="568" y="72" type="curve"/>
      <point x="544" y="96" type="line"/>
      <point x="480" y="48"/>
      <point x="416" y="32"/>
      <point x="352" y="32" type="curve" smooth="yes"/>
      <point x="224" y="32"/>
      <point x="96" y="120"/>
      <point x="96" y="320" type="curve" smooth="yes"/>
      <point x="96" y="496"/>
      <point x="208" y="672"/>
      <point x="384" y="672" type="curve" smooth="yes"/>
      <point x="544" y="672"/>
      <point x="592" y="528"/>
      <point x="592" y="416" type="curve" smooth="yes"/>
      <point x="592" y="280"/>
      <point x="536" y="192"/>
      <point x="484" y="192" type="curve" smooth="yes"/>
      <point x="454" y="192"/>
      <point x="444" y="224"/>
      <point x="452" y="256" type="curve" smooth="yes"/>
      <point x="512" y="496" type="line"/>
      <point x="448" y="496" type="line"/>
      <point x="434" y="438" type="line"/>
      <point x="426" y="484"/>
      <point x="400" y="494"/>
      <point x="358" y="494" type="curve" smooth="yes"/>
      <point x="274" y="494"/>
      <point x="184" y="404"/>
      <point x="184" y="288" type="curve" smooth="yes"/>
      <point x="184" y="200"/>
      <point x="224" y="148"/>
      <point x="288" y="148" type="curve" smooth="yes"/>
      <point x="323" y="148"/>
      <point x="367" y="173"/>
      <point x="391" y="235" type="curve"/>
      <point x="391" y="164"/>
      <point x="432" y="144"/>
      <point x="464" y="144" type="curve" smooth="yes"/>
      <point x="576" y="144"/>
      <point x="640" y="272"/>
      <point x="640" y="416" type="curve" smooth="yes"/>
      <point x="640" y="560"/>
      <point x="580" y="720"/>
      <point x="384" y="720" type="curve" smooth="yes"/>
      <point x="144" y="720"/>
      <point x="32" y="484"/>
      <point x="32" y="320" type="curve" smooth="yes"/>
      <point x="32" y="112"/>
      <point x="160" y="-16"/>
    </contour>
    <contour>
      <point x="368" y="464" type="curve" smooth="yes"/>
      <point x="396" y="464"/>
      <point x="412" y="454"/>
      <point x="412" y="410" type="curve" smooth="yes"/>
      <point x="412" y="300"/>
      <point x="353" y="180"/>
      <point x="302" y="180" type="curve" smooth="yes"/>
      <point x="274" y="180"/>
      <point x="258" y="206"/>
      <point x="258" y="250" type="curve" smooth="yes"/>
      <point x="258" y="339"/>
      <point x="306" y="464"/>
    </contour>
  </outline>
</glyph>
<glyph name="A" format="1">
  <advance width="628"/>
  <unicode hex="0041"/>
  <outline>
    <contour>
      <point x="399" y="256" type="line"/>
      <point x="185" y="256" type="line"/>
      <point x="292" y="530" type="line"/>
    </contour>
    <contour>
      <point x="168" y="24" type="line"/>
      <point x="104" y="48" type="line"/>
      <point x="166" y="208" type="line"/>
      <point x="417" y="208" type="line"/>
      <point x="480" y="48" type="line"/>
      <point x="416" y="24" type="line"/>
      <point x="416" y="0" type="line"/>
      <point x="644" y="0" type="line"/>
      <point x="644" y="24" type="line"/>
      <point x="580" y="48" type="line"/>
      <point x="328" y="704" type="line"/>
      <point x="296" y="704" type="line"/>
      <point x="244" y="652" type="line"/>
      <point x="267" y="594" type="line"/>
      <point x="48" y="48" type="line"/>
      <point x="-16" y="24" type="line"/>
      <point x="-16" y="0" type="line"/>
      <point x="168" y="0" type="line"/>
    </contour>
  </outline>
</glyph>
<glyph name="F" format="1">
  <advance width="568"/>
  <unicode hex="0046"/>
  <outline>
    <contour>
      <point x="252" y="24" type="line"/>
      <point x="188" y="48" type="line"/>
      <point x="188" y="352" type="line"/>
      <point x="360" y="352" type="line"/>
      <point x="392" y="272" type="line"/>
      <point x="416" y="272" type="line"/>
      <point x="416" y="480" type="line"/>
      <point x="392" y="480" type="line"/>
      <point x="360" y="400" type="line"/>
      <point x="188" y="400" type="line"/>
      <point x="188" y="656" type="line"/>
      <point x="444" y="656" type="line"/>
      <point x="516" y="512" type="line"/>
      <point x="544" y="526" type="line"/>
      <point x="508" y="704" type="line"/>
      <point x="32" y="704" type="line"/>
      <point x="32" y="680" type="line"/>
      <point x="96" y="656" type="line"/>
      <point x="96" y="48" type="line"/>
      <point x="32" y="24" type="line"/>
      <point x="32" y="0" type="line"/>
      <point x="252" y="0" type="line"/>
    </contour>
  </outline>
</glyph>
<glyph name="G" format="1">
  <advance width="692"/>
  <unicode hex="0047"/>
  <outline>
    <contour>
      <point x="572" y="0" type="line"/>
      <point x="604" y="0" type="line"/>
      <point x="604" y="304" type="line"/>
      <point x="668" y="328" type="line"/>
      <point x="668" y="352" type="line"/>
      <point x="448" y="352" type="line"/>
      <point x="448" y="328" type="line"/>
      <point x="512" y="304" type="line"/>
      <point x="512" y="96" type="line"/>
      <point x="477" y="54"/>
      <point x="433" y="40"/>
      <point x="380" y="40" type="curve" smooth="yes"/>
      <point x="260" y="40"/>
      <point x="144" y="144"/>
      <point x="144" y="352" type="curve" smooth="yes"/>
      <point x="144" y="552"/>
      <point x="260" y="668"/>
      <point x="380" y="668" type="curve" smooth="yes"/>
      <point x="472" y="668"/>
      <point x="564" y="578"/>
      <point x="576" y="496" type="curve"/>
      <point x="608" y="496" type="line"/>
      <point x="608" y="704" type="line"/>
      <point x="584" y="704" type="line"/>
      <point x="535" y="655" type="line"/>
      <point x="493" y="696"/>
      <point x="437" y="720"/>
      <point x="380" y="720" type="curve" smooth="yes"/>
      <point x="196" y="720"/>
      <point x="44" y="592"/>
      <point x="44" y="352" type="curve" smooth="yes"/>
      <point x="44" y="112"/>
      <point x="196" y="-16"/>
      <point x="348" y="-16" type="curve" smooth="yes"/>
      <point x="429" y="-16"/>
      <point x="485" y="3"/>
      <point x="525" y="47" type="curve"/>
    </contour>
  </outline>
</glyph>
<glyph name="I" format="1">
  <advance width="284"/>
  <unicode hex="0049"/>
  <outline>
    <contour>
      <point x="252" y="24" type="line"/>
      <point x="188" y="48" type="line"/>
      <point x="188" y="656" type="line"/>
      <point x="252" y="680" type="line"/>
      <point x="252" y="704" type="line"/>
      <point x="32" y="704" type="line"/>
      <point x="32" y="680" type="line"/>
      <point x="96" y="656" type="line"/>
      <point x="96" y="48" type="line"/>
      <point x="32" y="24" type="line"/>
      <point x="32" y="0" type="line"/>
      <point x="252" y="0" type="line"/>
    </contour>
  </outline>
</glyph>
<glyph name="K" format="1">
  <advance width="576"/>
  <unicode hex="004B"/>
  <outline>
    <contour>
      <point x="252" y="16" type="line"/>
      <point x="188" y="48" type="line"/>
      <point x="188" y="378" type="line"/>
      <point x="432" y="0" type="line"/>
      <point x="576" y="0" type="line"/>
      <point x="576" y="16" type="line"/>
      <point x="512" y="48" type="line"/>
      <point x="267" y="423" type="line"/>
      <point x="536" y="688" type="line"/>
      <point x="536" y="704" type="line"/>
      <point x="384" y="704" type="line"/>
      <point x="384" y="688" type="line"/>
      <point x="448" y="656" type="line"/>
      <point x="188" y="396" type="line"/>
      <point x="188" y="656" type="line"/>
      <point x="252" y="688" type="line"/>
      <point x="252" y="704" type="line"/>
      <point x="32" y="704" type="line"/>
      <point x="32" y="688" type="line"/>
      <point x="96" y="656" type="line"/>
      <point x="96" y="48" type="line"/>
      <point x="32" y="16" type="line"/>
      <point x="32" y="0" type="line"/>
      <point x="252" y="0" type="line"/>
    </contour>
  </outline>
</glyph>
<glyph name="L" format="1">
  <advance width="544"/>
  <unicode hex="004C"/>
  <outline>
    <contour>
      <point x="544" y="210" type="line"/>
      <point x="516" y="224" type="line"/>
      <point x="428" y="48" type="line"/>
      <point x="188" y="48" type="line"/>
      <point x="188" y="656" type="line"/>
      <point x="252" y="680" type="line"/>
      <point x="252" y="704" type="line"/>
      <point x="32" y="704" type="line"/>
      <point x="32" y="680" type="line"/>
      <point x="96" y="656" type="line"/>
      <point x="96" y="48" type="line"/>
      <point x="32" y="24" type="line"/>
      <point x="32" y="0" type="line"/>
      <point x="500" y="0" type="line"/>
    </contour>
  </outline>
</glyph>
<glyph name="M" format="1">
  <advance width="832"/>
  <unicode hex="004D"/>
  <outline>
    <contour>
      <point x="216" y="16" type="line"/>
      <point x="152" y="48" type="line"/>
      <point x="152" y="508" type="line"/>
      <point x="372" y="0" type="line"/>
      <point x="408" y="0" type="line"/>
      <point x="644" y="507" type="line"/>
      <point x="644" y="48" type="line"/>
      <point x="580" y="16" type="line"/>
      <point x="580" y="0" type="line"/>
      <point x="800" y="0" type="line"/>
      <point x="800" y="16" type="line"/>
      <point x="736" y="48" type="line"/>
      <point x="736" y="656" type="line"/>
      <point x="800" y="688" type="line"/>
      <point x="800" y="704" type="line"/>
      <point x="672" y="704" type="line"/>
      <point x="411" y="123" type="line"/>
      <point x="160" y="704" type="line"/>
      <point x="32" y="704" type="line"/>
      <point x="32" y="688" type="line"/>
      <point x="96" y="648" type="line"/>
      <point x="96" y="48" type="line"/>
      <point x="32" y="16" type="line"/>
      <point x="32" y="0" type="line"/>
      <point x="216" y="0" type="line"/>
    </contour>
  </outline>
</glyph>
<glyph name="P" format="1">
  <advance width="544"/>
  <unicode hex="0050"/>
  <outline>
    <contour>
      <point x="188" y="656" type="line"/>
      <point x="292" y="656" type="line" smooth="yes"/>
      <point x="364" y="656"/>
      <point x="428" y="608"/>
      <point x="428" y="520" type="curve" smooth="yes"/>
      <point x="428" y="432"/>
      <point x="364" y="384"/>
      <point x="292" y="384" type="curve" smooth="yes"/>
      <point x="188" y="384" type="line"/>
    </contour>
    <contour>
      <point x="236" y="24" type="line"/>
      <point x="188" y="48" type="line"/>
      <point x="188" y="336" type="line"/>
      <point x="320" y="336" type="line" smooth="yes"/>
      <point x="432" y="336"/>
      <point x="528" y="400"/>
      <point x="528" y="520" type="curve" smooth="yes"/>
      <point x="528" y="640"/>
      <point x="432" y="704"/>
      <point x="320" y="704" type="curve" smooth="yes"/>
      <point x="32" y="704" type="line"/>
      <point x="32" y="680" type="line"/>
      <point x="96" y="656" type="line"/>
      <point x="96" y="48" type="line"/>
      <point x="32" y="24" type="line"/>
      <point x="32" y="0" type="line"/>
      <point x="236" y="0" type="line"/>
    </contour>
  </outline>
</glyph>
<glyph name="Q" format="1">
  <advance width="736"/>
  <unicode hex="0051"/>
  <outline>
    <contour>
      <point x="600" y="-88" type="curve" smooth="yes"/>
      <point x="654" y="-88"/>
      <point x="688" y="-48"/>
      <point x="720" y="-16" type="curve"/>
      <point x="704" y="0" type="line"/>
      <point x="672" y="-24"/>
      <point x="656" y="-32"/>
      <point x="640" y="-32" type="curve" smooth="yes"/>
      <point x="614" y="-32"/>
      <point x="590" y="-14"/>
      <point x="568" y="8" type="curve" smooth="yes"/>
      <point x="543" y="33" type="line"/>
      <point x="631" y="91"/>
      <point x="688" y="199"/>
      <point x="688" y="352" type="curve" smooth="yes"/>
      <point x="688" y="592"/>
      <point x="548" y="720"/>
      <point x="368" y="720" type="curve" smooth="yes"/>
      <point x="192" y="720"/>
      <point x="48" y="592"/>
      <point x="48" y="352" type="curve" smooth="yes"/>
      <point x="48" y="112"/>
      <point x="192" y="-16"/>
      <point x="368" y="-16" type="curve" smooth="yes"/>
      <point x="402" y="-16"/>
      <point x="435" y="-11"/>
      <point x="466" y="-2" type="curve"/>
      <point x="504" y="-40" type="line" smooth="yes"/>
      <point x="536" y="-72"/>
      <point x="564" y="-88"/>
    </contour>
    <contour>
      <point x="424" y="152" type="line" smooth="yes"/>
      <point x="392" y="184"/>
      <point x="348" y="200"/>
      <point x="312" y="200" type="curve" smooth="yes"/>
      <point x="255" y="200"/>
      <point x="222" y="160"/>
      <point x="199" y="135" type="curve"/>
      <point x="168" y="185"/>
      <point x="148" y="257"/>
      <point x="148" y="352" type="curve" smooth="yes"/>
      <point x="148" y="576"/>
      <point x="256" y="668"/>
      <point x="368" y="668" type="curve" smooth="yes"/>
      <point x="484" y="668"/>
      <point x="588" y="576"/>
      <point x="588" y="352" type="curve" smooth="yes"/>
      <point x="588" y="217"/>
      <point x="550" y="129"/>
      <point x="494" y="82" type="curve"/>
    </contour>
    <contour>
      <point x="368" y="36" type="curve" smooth="yes"/>
      <point x="310" y="36"/>
      <point x="253" y="61"/>
      <point x="212" y="115" type="curve"/>
      <point x="222" y="124"/>
      <point x="250" y="144"/>
      <point x="288" y="144" type="curve" smooth="yes"/>
      <point x="312" y="144"/>
      <point x="338" y="126"/>
      <point x="360" y="104" type="curve" smooth="yes"/>
      <point x="421" y="43" type="line"/>
      <point x="404" y="38"/>
      <point x="386" y="36"/>
    </contour>
  </outline>
</glyph>
<glyph name="T" format="1">
  <advance width="608"/>
  <unicode hex="0054"/>
  <outline>
    <contour>
      <point x="414" y="24" type="line"/>
      <point x="350" y="48" type="line"/>
      <point x="350" y="656" type="line"/>
      <point x="496" y="656" type="line"/>
      <point x="568" y="528" type="line"/>
      <point x="600" y="544" type="line"/>
      <point x="552" y="704" type="line"/>
      <point x="56" y="704" type="line"/>
      <point x="8" y="544" type="line"/>
      <point x="40" y="528" type="line"/>
      <point x="112" y="656" type="line"/>
      <point x="258" y="656" type="line"/>
      <point x="258" y="48" type="line"/>
      <point x="194" y="24" type="line"/>
      <point x="194" y="0" type="line"/>
      <point x="414" y="0" type="line"/>
    </contour>
  </outline>
</glyph>
<glyph name="V" format="1">
  <advance width="608"/>
  <unicode hex="0056"/>
  <outline>
    <contour>
      <point x="304" y="0" type="line"/>
      <point x="336" y="0" type="line"/>
      <point x="560" y="656" type="line"/>
      <point x="624" y="680" type="line"/>
      <point x="624" y="704" type="line"/>
      <point x="440" y="704" type="line"/>
      <point x="440" y="680" type="line"/>
      <point x="504" y="656" type="line"/>
      <point x="341" y="167" type="line"/>
      <point x="148" y="656" type="line"/>
      <point x="212" y="680" type="line"/>
      <point x="212" y="704" type="line"/>
      <point x="-16" y="704" type="line"/>
      <point x="-16" y="680" type="line"/>
      <point x="48" y="656" type="line"/>
    </contour>
  </outline>
</glyph>
<glyph name="Z" format="1">
  <advance width="528"/>
  <unicode hex="005A"/>
  <outline>
    <contour>
      <point x="484" y="0" type="line"/>
      <point x="528" y="210" type="line"/>
      <point x="500" y="224" type="line"/>
      <point x="412" y="48" type="line"/>
      <point x="130" y="48" type="line"/>
      <point x="512" y="688" type="line"/>
      <point x="512" y="704" type="line"/>
      <point x="48" y="704" type="line"/>
      <point x="12" y="526" type="line"/>
      <point x="40" y="512" type="line"/>
      <point x="112" y="656" type="line"/>
      <point x="382" y="656" type="line"/>
      <point x="0" y="16" type="line"/>
      <point x="0" y="0" type="line"/>
    </contour>
  </outline>
</glyph>
<glyph name="bracketleft" format="1">
  <advance width="272"/>
  <unicode hex="005B"/>
  <outline>
    <contour>
      <point x="96" y="704" type="line"/>
      <point x="256" y="704" type="line"/>
      <point x="256" y="736" type="line"/>
      <point x="32" y="736" type="line"/>
      <point x="32" y="-32" type="line"/>
      <point x="256" y="-32" type="line"/>
      <point x="256" y="0" type="line"/>
      <point x="96" y="0" type="line"/>
    </contour>
  </outline>
</glyph>
<glyph name="backslash" format="1">
  <advance width="416"/>
  <unicode hex="005C"/>
  <outline>
    <contour>
      <point x="64" y="768" type="line"/>
      <point x="0" y="768" type="line"/>
      <point x="352" y="-64" type="line"/>
      <point x="416" y="-64" type="line"/>
    </contour>
  </outline>
</glyph>
<glyph name="asciicircum" format="1">
  <advance width="416"/>
  <unicode hex="005E"/>
  <outline>
    <contour>
      <point x="112" y="480" type="line"/>
      <point x="208" y="608" type="line"/>
      <point x="304" y="480" type="line"/>
      <point x="352" y="480" type="line"/>
      <point x="240" y="672" type="line"/>
      <point x="176" y="672" type="line"/>
      <point x="64" y="480" type="line"/>
    </contour>
  </outline>
</glyph>
<glyph name="a" format="1">
  <advance width="444"/>
  <unicode hex="0061"/>
  <outline>
    <contour>
      <point x="204" y="38" type="curve" smooth="yes"/>
      <point x="140" y="38"/>
      <point x="128" y="96"/>
      <point x="128" y="128" type="curve" smooth="yes"/>
      <point x="128" y="192"/>
      <point x="164" y="240"/>
      <point x="272" y="240" type="curve" smooth="yes"/>
      <point x="312" y="240" type="line"/>
      <point x="312" y="96" type="line"/>
      <point x="276" y="60"/>
      <point x="232" y="38"/>
    </contour>
    <contour>
      <point x="324" y="50" type="curve"/>
      <point x="324" y="0" type="line"/>
      <point x="428" y="0" type="line"/>
      <point x="428" y="24" type="line"/>
      <point x="396" y="56" type="line"/>
      <point x="396" y="320" type="line" smooth="yes"/>
      <point x="396" y="432"/>
      <point x="360" y="496"/>
      <point x="224" y="496" type="curve" smooth="yes"/>
      <point x="126" y="496"/>
      <point x="48" y="435"/>
      <point x="44" y="372" type="curve"/>
      <point x="44" y="369"/>
      <point x="44" y="371"/>
      <point x="44" y="372" type="curve"/>
      <point x="44" y="371"/>
      <point x="44" y="369"/>
      <point x="44" y="368" type="curve" smooth="yes"/>
      <point x="44" y="336"/>
      <point x="68" y="312"/>
      <point x="100" y="312" type="curve" smooth="yes"/>
      <point x="132" y="312"/>
      <point x="156" y="336"/>
      <point x="156" y="368" type="curve" smooth="yes"/>
      <point x="156" y="388"/>
      <point x="147" y="405"/>
      <point x="132" y="415" type="curve"/>
      <point x="147" y="435"/>
      <point x="182" y="448"/>
      <point x="224" y="448" type="curve" smooth="yes"/>
      <point x="296" y="448"/>
      <point x="312" y="400"/>
      <point x="312" y="352" type="curve" smooth="yes"/>
      <point x="312" y="288" type="line"/>
      <point x="272" y="288" type="line" smooth="yes"/>
      <point x="124" y="288"/>
      <point x="32" y="224"/>
      <point x="32" y="128" type="curve" smooth="yes"/>
      <point x="32" y="56"/>
      <point x="84" y="-16"/>
      <point x="196" y="-16" type="curve" smooth="yes"/>
      <point x="236" y="-16"/>
      <point x="276" y="2"/>
    </contour>
  </outline>
</glyph>
<glyph name="b" format="1">
  <advance width="528"/>
  <unicode hex="0062"/>
  <outline>
    <contour>
      <point x="288" y="-16" type="curve" smooth="yes"/>
      <point x="432" y="-16"/>
      <point x="496" y="104"/>
      <point x="496" y="240" type="curve" smooth="yes"/>
      <point x="496" y="376"/>
      <point x="432" y="496"/>
      <point x="288" y="496" type="curve" smooth="yes"/>
      <point x="248" y="496"/>
      <point x="208" y="480"/>
      <point x="172" y="444" type="curve" smooth="yes"/>
      <point x="164" y="436" type="line"/>
      <point x="164" y="704" type="line"/>
      <point x="16" y="704" type="line"/>
      <point x="16" y="680" type="line"/>
      <point x="80" y="648" type="line"/>
      <point x="80" y="32" type="line"/>
      <point x="176" y="0" type="line" smooth="yes"/>
      <point x="200" y="-8"/>
      <point x="256" y="-16"/>
    </contour>
    <contour>
      <point x="288" y="32" type="curve" smooth="yes"/>
      <point x="240" y="32"/>
      <point x="192" y="56"/>
      <point x="172" y="76" type="curve" smooth="yes"/>
      <point x="164" y="84" type="line"/>
      <point x="164" y="388" type="line"/>
      <point x="172" y="396" type="line" smooth="yes"/>
      <point x="208" y="432"/>
      <point x="240" y="448"/>
      <point x="288" y="448" type="curve" smooth="yes"/>
      <point x="368" y="448"/>
      <point x="392" y="344"/>
      <point x="392" y="240" type="curve" smooth="yes"/>
      <point x="392" y="136"/>
      <point x="368" y="32"/>
    </contour>
  </outline>
</glyph>
<glyph name="d" format="1">
  <advance width="552"/>
  <unicode hex="0064"/>
  <outline>
    <contour>
      <point x="256" y="32" type="curve" smooth="yes"/>
      <point x="192" y="32"/>
      <point x="128" y="88"/>
      <point x="128" y="240" type="curve" smooth="yes"/>
      <point x="128" y="392"/>
      <point x="192" y="448"/>
      <point x="256" y="448" type="curve" smooth="yes"/>
      <point x="304" y="448"/>
      <point x="328" y="436"/>
      <point x="364" y="400" type="curve" smooth="yes"/>
      <point x="372" y="392" type="line"/>
      <point x="372" y="80" type="line"/>
      <point x="336" y="44"/>
      <point x="296" y="32"/>
    </contour>
    <contour>
      <point x="372" y="32" type="curve" smooth="yes"/>
      <point x="384" y="44" type="line"/>
      <point x="384" y="0" type="line"/>
      <point x="520" y="0" type="line"/>
      <point x="520" y="24" type="line"/>
      <point x="456" y="48" type="line"/>
      <point x="456" y="704" type="line"/>
      <point x="308" y="704" type="line"/>
      <point x="308" y="680" type="line"/>
      <point x="372" y="656" type="line"/>
      <point x="372" y="477" type="line"/>
      <point x="364" y="480" type="line" smooth="yes"/>
      <point x="340" y="488"/>
      <point x="288" y="496"/>
      <point x="256" y="496" type="curve" smooth="yes"/>
      <point x="120" y="496"/>
      <point x="32" y="384"/>
      <point x="32" y="240" type="curve" smooth="yes"/>
      <point x="32" y="96"/>
      <point x="120" y="-16"/>
      <point x="256" y="-16" type="curve" smooth="yes"/>
      <point x="288" y="-16"/>
      <point x="336" y="-4"/>
    </contour>
  </outline>
</glyph>
<glyph name="e" format="1">
  <advance width="497"/>
  <unicode hex="0065"/>
  <outline>
    <contour>
      <point x="260" y="448" type="curve" smooth="yes"/>
      <point x="324" y="448"/>
      <point x="376" y="376"/>
      <point x="364" y="304" type="curve"/>
      <point x="136" y="304" type="line"/>
      <point x="152" y="408"/>
      <point x="206" y="448"/>
    </contour>
    <contour>
      <point x="456" y="112" type="curve"/>
      <point x="432" y="124" type="line"/>
      <point x="406" y="92"/>
      <point x="360" y="48"/>
      <point x="292" y="48" type="curve" smooth="yes"/>
      <point x="228" y="48"/>
      <point x="132" y="88"/>
      <point x="132" y="240" type="curve" smooth="yes"/>
      <point x="132" y="246"/>
      <point x="132" y="251"/>
      <point x="132" y="256" type="curve"/>
      <point x="460" y="256" type="line"/>
      <point x="470" y="384"/>
      <point x="404" y="496"/>
      <point x="260" y="496" type="curve" smooth="yes"/>
      <point x="124" y="496"/>
      <point x="36" y="384"/>
      <point x="36" y="240" type="curve" smooth="yes"/>
      <point x="36" y="96"/>
      <point x="132" y="-16"/>
      <point x="268" y="-16" type="curve" smooth="yes"/>
      <point x="388" y="-16"/>
      <point x="440" y="80"/>
    </contour>
  </outline>
</glyph>
<glyph name="f" format="1">
  <advance width="312"/>
  <unicode hex="0066"/>
  <outline>
    <contour>
      <point x="240" y="24" type="line"/>
      <point x="176" y="48" type="line"/>
      <point x="176" y="432" type="line"/>
      <point x="312" y="432" type="line"/>
      <point x="312" y="480" type="line"/>
      <point x="176" y="480" type="line"/>
      <point x="176" y="560" type="line" smooth="yes"/>
      <point x="176" y="626"/>
      <point x="208" y="694"/>
      <point x="258" y="697" type="curve"/>
      <point x="257" y="692"/>
      <point x="256" y="686"/>
      <point x="256" y="680" type="curve" smooth="yes"/>
      <point x="256" y="648"/>
      <point x="280" y="624"/>
      <point x="312" y="624" type="curve" smooth="yes"/>
      <point x="344" y="624"/>
      <point x="368" y="648"/>
      <point x="368" y="680" type="curve" smooth="yes"/>
      <point x="368" y="682"/>
      <point x="368" y="683"/>
      <point x="368" y="684" type="curve"/>
      <point x="368" y="683"/>
      <point x="368" y="685"/>
      <point x="368" y="687" type="curve"/>
      <point x="367" y="688"/>
      <point x="367" y="688"/>
      <point x="367" y="688" type="curve"/>
      <point x="366" y="700"/>
      <point x="361" y="711"/>
      <point x="353" y="719" type="curve" smooth="yes"/>
      <point x="342" y="731"/>
      <point x="324" y="740"/>
      <point x="296" y="740" type="curve" smooth="yes"/>
      <point x="168" y="740"/>
      <point x="92" y="648"/>
      <point x="92" y="488" type="curve" smooth="yes"/>
      <point x="92" y="480" type="line"/>
      <point x="28" y="480" type="line"/>
      <point x="28" y="432" type="line"/>
      <point x="92" y="432" type="line"/>
      <point x="92" y="48" type="line"/>
      <point x="28" y="24" type="line"/>
      <point x="28" y="0" type="line"/>
      <point x="240" y="0" type="line"/>
    </contour>
  </outline>
</glyph>
<glyph name="i" format="1">
  <advance width="268"/>
  <unicode hex="0069"/>
  <outline>
    <contour>
      <point x="140" y="720" type="curve" smooth="yes"/>
      <point x="108" y="720"/>
      <point x="84" y="696"/>
      <point x="84" y="664" type="curve" smooth="yes"/>
      <point x="84" y="632"/>
      <point x="108" y="608"/>
      <point x="140" y="608" type="curve" smooth="yes"/>
      <point x="172" y="608"/>
      <point x="196" y="632"/>
      <point x="196" y="664" type="curve" smooth="yes"/>
      <point x="196" y="696"/>
      <point x="172" y="720"/>
    </contour>
    <contour>
      <point x="244" y="24" type="line"/>
      <point x="180" y="48" type="line"/>
      <point x="180" y="480" type="line"/>
      <point x="32" y="480" type="line"/>
      <point x="32" y="456" type="line"/>
      <point x="96" y="432" type="line"/>
      <point x="96" y="48" type="line"/>
      <point x="32" y="24" type="line"/>
      <point x="32" y="0" type="line"/>
      <point x="244" y="0" type="line"/>
    </contour>
  </outline>
</glyph>
<glyph name="j" format="1">
  <advance width="256"/>
  <unicode hex="006A"/>
  <outline>
    <contour>
      <point x="128" y="720" type="curve" smooth="yes"/>
      <point x="92" y="720"/>
      <point x="64" y="692"/>
      <point x="64" y="656" type="curve" smooth="yes"/>
      <point x="64" y="620"/>
      <point x="92" y="592"/>
      <point x="128" y="592" type="curve" smooth="yes"/>
      <point x="164" y="592"/>
      <point x="192" y="620"/>
      <point x="192" y="656" type="curve" smooth="yes"/>
      <point x="192" y="692"/>
      <point x="164" y="720"/>
    </contour>
    <contour>
      <point x="-8" y="-208" type="curve" smooth="yes"/>
      <point x="120" y="-208"/>
      <point x="184" y="-128"/>
      <point x="184" y="0" type="curve" smooth="yes"/>
      <point x="184" y="480" type="line"/>
      <point x="36" y="480" type="line"/>
      <point x="36" y="456" type="line"/>
      <point x="100" y="424" type="line"/>
      <point x="100" y="-32" type="line" smooth="yes"/>
      <point x="100" y="-128"/>
      <point x="78" y="-167"/>
      <point x="29" y="-165" type="curve"/>
      <point x="31" y="-160"/>
      <point x="32" y="-154"/>
      <point x="32" y="-148" type="curve" smooth="yes"/>
      <point x="32" y="-116"/>
      <point x="8" y="-92"/>
      <point x="-24" y="-92" type="curve" smooth="yes"/>
      <point x="-56" y="-92"/>
      <point x="-80" y="-116"/>
      <point x="-80" y="-148" type="curve" smooth="yes"/>
      <point x="-80" y="-150"/>
      <point x="-80" y="-151"/>
      <point x="-80" y="-152" type="curve"/>
      <point x="-80" y="-151"/>
      <point x="-80" y="-153"/>
      <point x="-80" y="-155" type="curve"/>
      <point x="-79" y="-156"/>
      <point x="-79" y="-156"/>
      <point x="-79" y="-156" type="curve"/>
      <point x="-78" y="-168"/>
      <point x="-73" y="-179"/>
      <point x="-65" y="-187" type="curve" smooth="yes"/>
      <point x="-54" y="-199"/>
      <point x="-36" y="-208"/>
    </contour>
  </outline>
</glyph>
<glyph name="k" format="1">
  <advance width="512"/>
  <unicode hex="006B"/>
  <outline>
    <contour>
      <point x="228" y="24" type="line"/>
      <point x="164" y="48" type="line"/>
      <point x="164" y="166" type="line"/>
      <point x="242" y="244" type="line"/>
      <point x="340" y="48" type="line"/>
      <point x="276" y="24" type="line"/>
      <point x="276" y="0" type="line"/>
      <point x="496" y="0" type="line"/>
      <point x="496" y="24" type="line"/>
      <point x="432" y="48" type="line"/>
      <point x="303" y="305" type="line"/>
      <point x="454" y="456" type="line"/>
      <point x="454" y="480" type="line"/>
      <point x="300" y="480" type="line"/>
      <point x="300" y="456" type="line"/>
      <point x="360" y="426" type="line"/>
      <point x="164" y="230" type="line"/>
      <point x="164" y="704" type="line"/>
      <point x="16" y="704" type="line"/>
      <point x="16" y="688" type="line"/>
      <point x="80" y="656" type="line"/>
      <point x="80" y="48" type="line"/>
      <point x="16" y="24" type="line"/>
      <point x="16" y="0" type="line"/>
      <point x="228" y="0" type="line"/>
    </contour>
  </outline>
</glyph>
<glyph name="m" format="1">
  <advance width="780"/>
  <unicode hex="006D"/>
  <outline>
    <contour>
      <point x="244" y="24" type="line"/>
      <point x="180" y="48" type="line"/>
      <point x="180" y="380" type="line"/>
      <point x="184" y="384" type="line" smooth="yes"/>
      <point x="224" y="424"/>
      <point x="264" y="440"/>
      <point x="294" y="440" type="curve" smooth="yes"/>
      <point x="336" y="440"/>
      <point x="352" y="400"/>
      <point x="352" y="352" type="curve" smooth="yes"/>
      <point x="352" y="0" type="line"/>
      <point x="500" y="0" type="line"/>
      <point x="500" y="24" type="line"/>
      <point x="436" y="48" type="line"/>
      <point x="436" y="336" type="line" smooth="yes"/>
      <point x="436" y="351"/>
      <point x="436" y="365"/>
      <point x="435" y="379" type="curve"/>
      <point x="440" y="384" type="line" smooth="yes"/>
      <point x="480" y="424"/>
      <point x="520" y="440"/>
      <point x="550" y="440" type="curve" smooth="yes"/>
      <point x="592" y="440"/>
      <point x="608" y="400"/>
      <point x="608" y="352" type="curve" smooth="yes"/>
      <point x="608" y="0" type="line"/>
      <point x="756" y="0" type="line"/>
      <point x="756" y="24" type="line"/>
      <point x="692" y="48" type="line"/>
      <point x="692" y="336" type="line" smooth="yes"/>
      <point x="692" y="416"/>
      <point x="688" y="496"/>
      <point x="582" y="496" type="curve" smooth="yes"/>
      <point x="544" y="496"/>
      <point x="488" y="480"/>
      <point x="440" y="432" type="curve" smooth="yes"/>
      <point x="429" y="421" type="line"/>
      <point x="419" y="465"/>
      <point x="392" y="496"/>
      <point x="326" y="496" type="curve" smooth="yes"/>
      <point x="288" y="496"/>
      <point x="232" y="480"/>
      <point x="184" y="432" type="curve" smooth="yes"/>
      <point x="168" y="416" type="line"/>
      <point x="168" y="480" type="line"/>
      <point x="32" y="480" type="line"/>
      <point x="32" y="456" type="line"/>
      <point x="96" y="432" type="line"/>
      <point x="96" y="48" type="line"/>
      <point x="32" y="24" type="line"/>
      <point x="32" y="0" type="line"/>
      <point x="244" y="0" type="line"/>
    </contour>
  </outline>
</glyph>
<glyph name="n" format="1">
  <advance width="536"/>
  <unicode hex="006E"/>
  <outline>
    <contour>
      <point x="244" y="24" type="line"/>
      <point x="180" y="48" type="line"/>
      <point x="180" y="380" type="line"/>
      <point x="184" y="384" type="line" smooth="yes"/>
      <point x="220" y="420"/>
      <point x="264" y="440"/>
      <point x="296" y="440" type="curve" smooth="yes"/>
      <point x="344" y="440"/>
      <point x="380" y="400"/>
      <point x="380" y="320" type="curve" smooth="yes"/>
      <point x="380" y="48" type="line"/>
      <point x="316" y="24" type="line"/>
      <point x="316" y="0" type="line"/>
      <point x="528" y="0" type="line"/>
      <point x="528" y="24" type="line"/>
      <point x="464" y="48" type="line"/>
      <point x="464" y="304" type="line" smooth="yes"/>
      <point x="464" y="416"/>
      <point x="440" y="496"/>
      <point x="328" y="496" type="curve" smooth="yes"/>
      <point x="288" y="496"/>
      <point x="232" y="480"/>
      <point x="184" y="432" type="curve" smooth="yes"/>
      <point x="168" y="416" type="line"/>
      <point x="168" y="480" type="line"/>
      <point x="32" y="480" type="line"/>
      <point x="32" y="456" type="line"/>
      <point x="96" y="432" type="line"/>
      <point x="96" y="48" type="line"/>
      <point x="32" y="24" type="line"/>
      <point x="32" y="0" type="line"/>
      <point x="244" y="0" type="line"/>
    </contour>
  </outline>
</glyph>
<glyph name="o" format="1">
  <advance width="520"/>
  <unicode hex="006F"/>
  <outline>
    <contour>
      <point x="484" y="240" type="curve" smooth="yes"/>
      <point x="484" y="384"/>
      <point x="396" y="496"/>
      <point x="260" y="496" type="curve" smooth="yes"/>
      <point x="124" y="496"/>
      <point x="36" y="384"/>
      <point x="36" y="240" type="curve" smooth="yes"/>
      <point x="36" y="96"/>
      <point x="124" y="-16"/>
      <point x="260" y="-16" type="curve" smooth="yes"/>
      <point x="396" y="-16"/>
      <point x="484" y="96"/>
    </contour>
    <contour>
      <point x="388" y="240" type="curve" smooth="yes"/>
      <point x="388" y="88"/>
      <point x="324" y="32"/>
      <point x="260" y="32" type="curve" smooth="yes"/>
      <point x="196" y="32"/>
      <point x="132" y="88"/>
      <point x="132" y="240" type="curve" smooth="yes"/>
      <point x="132" y="392"/>
      <point x="196" y="448"/>
      <point x="260" y="448" type="curve" smooth="yes"/>
      <point x="324" y="448"/>
      <point x="388" y="392"/>
    </contour>
  </outline>
</glyph>
<glyph name="q" format="1">
  <advance width="528"/>
  <unicode hex="0071"/>
  <outline>
    <contour>
      <point x="512" y="-192" type="line"/>
      <point x="512" y="-168" type="line"/>
      <point x="448" y="-144" type="line"/>
      <point x="448" y="400" type="line"/>
      <point x="512" y="424" type="line"/>
      <point x="512" y="448" type="line"/>
      <point x="448" y="448" type="line"/>
      <point x="352" y="480" type="line" smooth="yes"/>
      <point x="328" y="488"/>
      <point x="272" y="496"/>
      <point x="240" y="496" type="curve" smooth="yes"/>
      <point x="96" y="496"/>
      <point x="32" y="376"/>
      <point x="32" y="240" type="curve" smooth="yes"/>
      <point x="32" y="104"/>
      <point x="96" y="-16"/>
      <point x="240" y="-16" type="curve" smooth="yes"/>
      <point x="280" y="-16"/>
      <point x="320" y="0"/>
      <point x="356" y="36" type="curve" smooth="yes"/>
      <point x="364" y="44" type="line"/>
      <point x="364" y="-144" type="line"/>
      <point x="300" y="-168" type="line"/>
      <point x="300" y="-192" type="line"/>
    </contour>
    <contour>
      <point x="240" y="32" type="curve" smooth="yes"/>
      <point x="160" y="32"/>
      <point x="136" y="136"/>
      <point x="136" y="240" type="curve" smooth="yes"/>
      <point x="136" y="344"/>
      <point x="160" y="448"/>
      <point x="240" y="448" type="curve" smooth="yes"/>
      <point x="288" y="448"/>
      <point x="336" y="424"/>
      <point x="356" y="404" type="curve" smooth="yes"/>
      <point x="364" y="396" type="line"/>
      <point x="364" y="92" type="line"/>
      <point x="356" y="84" type="line" smooth="yes"/>
      <point x="320" y="48"/>
      <point x="288" y="32"/>
    </contour>
  </outline>
</glyph>
<glyph name="s" format="1">
  <advance width="384"/>
  <unicode hex="0073"/>
  <outline>
    <contour>
      <point x="208" y="-16" type="curve" smooth="yes"/>
      <point x="312" y="-16"/>
      <point x="360" y="72"/>
      <point x="360" y="128" type="curve" smooth="yes"/>
      <point x="360" y="184"/>
      <point x="330" y="240"/>
      <point x="248" y="276" type="curve" smooth="yes"/>
      <point x="176" y="308" type="line" smooth="yes"/>
      <point x="131" y="328"/>
      <point x="112" y="346"/>
      <point x="112" y="384" type="curve" smooth="yes"/>
      <point x="112" y="416"/>
      <point x="136" y="448"/>
      <point x="176" y="448" type="curve" smooth="yes"/>
      <point x="224" y="448"/>
      <point x="288" y="416"/>
      <point x="304" y="320" type="curve"/>
      <point x="336" y="320" type="line"/>
      <point x="336" y="480" type="line"/>
      <point x="312" y="480" type="line"/>
      <point x="286" y="454" type="line"/>
      <point x="249" y="486"/>
      <point x="210" y="496"/>
      <point x="176" y="496" type="curve" smooth="yes"/>
      <point x="112" y="496"/>
      <point x="40" y="448"/>
      <point x="40" y="352" type="curve" smooth="yes"/>
      <point x="40" y="296"/>
      <point x="80" y="250"/>
      <point x="144" y="222" type="curve" smooth="yes"/>
      <point x="216" y="190" type="line" smooth="yes"/>
      <point x="265" y="168"/>
      <point x="288" y="148"/>
      <point x="288" y="104" type="curve" smooth="yes"/>
      <point x="288" y="72"/>
      <point x="256" y="32"/>
      <point x="208" y="32" type="curve" smooth="yes"/>
      <point x="144" y="32"/>
      <point x="84" y="96"/>
      <point x="64" y="192" type="curve"/>
      <point x="32" y="192" type="line"/>
      <point x="32" y="0" type="line"/>
      <point x="56" y="0" type="line"/>
      <point x="92" y="36" type="line"/>
      <point x="132" y="-1"/>
      <point x="175" y="-16"/>
    </contour>
  </outline>
</glyph>
<glyph name="t" format="1">
  <advance width="284"/>
  <unicode hex="0074"/>
  <outline>
    <contour>
      <point x="176" y="-16" type="curve" smooth="yes"/>
      <point x="240" y="-16"/>
      <point x="288" y="32"/>
      <point x="288" y="96" type="curve"/>
      <point x="256" y="96" type="line"/>
      <point x="256" y="72"/>
      <point x="232" y="48"/>
      <point x="204" y="48" type="curve" smooth="yes"/>
      <point x="176" y="48"/>
      <point x="156" y="72"/>
      <point x="156" y="96" type="curve" smooth="yes"/>
      <point x="156" y="432" type="line"/>
      <point x="268" y="432" type="line"/>
      <point x="268" y="480" type="line"/>
      <point x="156" y="480" type="line"/>
      <point x="156" y="632" type="line"/>
      <point x="112" y="632" type="line"/>
      <point x="112" y="560"/>
      <point x="80" y="480"/>
      <point x="0" y="480" type="curve"/>
      <point x="0" y="432" type="line"/>
      <point x="72" y="432" type="line"/>
      <point x="72" y="96" type="line" smooth="yes"/>
      <point x="72" y="32"/>
      <point x="116" y="-16"/>
    </contour>
  </outline>
</glyph>
<glyph name="x" format="1">
  <advance width="504"/>
  <unicode hex="0078"/>
  <outline>
    <contour>
      <point x="192" y="24" type="line"/>
      <point x="128" y="56" type="line"/>
      <point x="232" y="205" type="line"/>
      <point x="336" y="56" type="line"/>
      <point x="272" y="24" type="line"/>
      <point x="272" y="0" type="line"/>
      <point x="496" y="0" type="line"/>
      <point x="496" y="24" type="line"/>
      <point x="432" y="56" type="line"/>
      <point x="292" y="257" type="line"/>
      <point x="408" y="424" type="line"/>
      <point x="472" y="456" type="line"/>
      <point x="472" y="480" type="line"/>
      <point x="288" y="480" type="line"/>
      <point x="288" y="456" type="line"/>
      <point x="352" y="424" type="line"/>
      <point x="264" y="297" type="line"/>
      <point x="176" y="424" type="line"/>
      <point x="240" y="456" type="line"/>
      <point x="240" y="480" type="line"/>
      <point x="16" y="480" type="line"/>
      <point x="16" y="456" type="line"/>
      <point x="80" y="424" type="line"/>
      <point x="204" y="245" type="line"/>
      <point x="72" y="56" type="line"/>
      <point x="8" y="24" type="line"/>
      <point x="8" y="0" type="line"/>
      <point x="192" y="0" type="line"/>
    </contour>
  </outline>
</glyph>
<glyph name="y" format="1">
  <advance width="504"/>
  <unicode hex="0079"/>
  <outline>
    <contour>
      <point x="100" y="-208" type="curve" smooth="yes"/>
      <point x="160" y="-208"/>
      <point x="196" y="-202"/>
      <point x="230" y="-112" type="curve" smooth="yes"/>
      <point x="432" y="432" type="line"/>
      <point x="496" y="456" type="line"/>
      <point x="496" y="480" type="line"/>
      <point x="318" y="480" type="line"/>
      <point x="318" y="456" type="line"/>
      <point x="382" y="432" type="line"/>
      <point x="271" y="132" type="line"/>
      <point x="160" y="432" type="line"/>
      <point x="224" y="456" type="line"/>
      <point x="224" y="480" type="line"/>
      <point x="8" y="480" type="line"/>
      <point x="8" y="456" type="line"/>
      <point x="72" y="432" type="line"/>
      <point x="227" y="14" type="line"/>
      <point x="180" y="-112" type="line" smooth="yes"/>
      <point x="168" y="-144"/>
      <point x="152" y="-160"/>
      <point x="136" y="-160" type="curve" smooth="yes"/>
      <point x="129" y="-160"/>
      <point x="122" y="-159"/>
      <point x="116" y="-157" type="curve"/>
      <point x="119" y="-150"/>
      <point x="120" y="-143"/>
      <point x="120" y="-136" type="curve" smooth="yes"/>
      <point x="120" y="-104"/>
      <point x="96" y="-80"/>
      <point x="64" y="-80" type="curve" smooth="yes"/>
      <point x="32" y="-80"/>
      <point x="8" y="-104"/>
      <point x="8" y="-136" type="curve" smooth="yes"/>
      <point x="8" y="-184"/>
      <point x="56" y="-208"/>
    </contour>
  </outline>
</glyph>
<glyph name="exclamdown" format="1">
  <advance width="192"/>
  <unicode hex="00A1"/>
  <outline>
    <contour>
      <point x="160" y="656" type="curve" smooth="yes"/>
      <point x="160" y="692"/>
      <point x="132" y="720"/>
      <point x="96" y="720" type="curve" smooth="yes"/>
      <point x="60" y="720"/>
      <point x="32" y="692"/>
      <point x="32" y="656" type="curve" smooth="yes"/>
      <point x="32" y="620"/>
      <point x="60" y="592"/>
      <point x="96" y="592" type="curve" smooth="yes"/>
      <point x="132" y="592"/>
      <point x="160" y="620"/>
    </contour>
    <contour>
      <point x="96" y="-16" type="curve" smooth="yes"/>
      <point x="128" y="-16"/>
      <point x="152" y="8"/>
      <point x="152" y="40" type="curve" smooth="yes"/>
      <point x="152" y="43"/>
      <point x="152" y="45"/>
      <point x="151" y="48" type="curve"/>
      <point x="120" y="512" type="line"/>
      <point x="72" y="512" type="line"/>
      <point x="41" y="48" type="line"/>
      <point x="40" y="45"/>
      <point x="40" y="43"/>
      <point x="40" y="40" type="curve" smooth="yes"/>
      <point x="40" y="8"/>
      <point x="64" y="-16"/>
    </contour>
  </outline>
</glyph>
<glyph name="section" format="1">
  <advance width="602"/>
  <unicode hex="00A7"/>
  <outline>
    <contour>
      <point x="175" y="380" type="curve" smooth="yes"/>
      <point x="175" y="412"/>
      <point x="206" y="443"/>
      <point x="246" y="443" type="curve" smooth="yes"/>
      <point x="281" y="443"/>
      <point x="310" y="419"/>
      <point x="354" y="380" type="curve" smooth="yes"/>
      <point x="401" y="338"/>
      <point x="425" y="303"/>
      <point x="425" y="268" type="curve" smooth="yes"/>
      <point x="425" y="229"/>
      <point x="395" y="202"/>
      <point x="355" y="202" type="curve" smooth="yes"/>
      <point x="321" y="202"/>
      <point x="289" y="225"/>
      <point x="245" y="267" type="curve" smooth="yes"/>
      <point x="200" y="309"/>
      <point x="175" y="336"/>
    </contour>
    <contour>
      <point x="194" y="204" type="curve" smooth="yes"/>
      <point x="282" y="128" type="line" smooth="yes"/>
      <point x="340" y="78"/>
      <point x="372" y="43"/>
      <point x="372" y="5" type="curve" smooth="yes"/>
      <point x="372" y="-36"/>
      <point x="339" y="-69"/>
      <point x="285" y="-69" type="curve" smooth="yes"/>
      <point x="240" y="-69"/>
      <point x="214" y="-54"/>
      <point x="214" y="-37" type="curve" smooth="yes"/>
      <point x="214" y="-21"/>
      <point x="245" y="-12"/>
      <point x="245" y="21" type="curve" smooth="yes"/>
      <point x="245" y="49"/>
      <point x="224" y="69"/>
      <point x="195" y="69" type="curve" smooth="yes"/>
      <point x="162" y="69"/>
      <point x="139" y="45"/>
      <point x="139" y="8" type="curve" smooth="yes"/>
      <point x="139" y="-44"/>
      <point x="197" y="-93"/>
      <point x="278" y="-93" type="curve" smooth="yes"/>
      <point x="384" y="-93"/>
      <point x="447" y="-39"/>
      <point x="447" y="31" type="curve" smooth="yes"/>
      <point x="447" y="79"/>
      <point x="415" y="125"/>
      <point x="353" y="176" type="curve"/>
      <point x="439" y="178"/>
      <point x="494" y="228"/>
      <point x="494" y="299" type="curve" smooth="yes"/>
      <point x="494" y="347"/>
      <point x="466" y="393"/>
      <point x="409" y="441" type="curve" smooth="yes"/>
      <point x="322" y="514" type="line" smooth="yes"/>
      <point x="264" y="563"/>
      <point x="229" y="598"/>
      <point x="229" y="644" type="curve" smooth="yes"/>
      <point x="229" y="686"/>
      <point x="258" y="714"/>
      <point x="308" y="714" type="curve" smooth="yes"/>
      <point x="347" y="714"/>
      <point x="371" y="695"/>
      <point x="371" y="681" type="curve" smooth="yes"/>
      <point x="371" y="664"/>
      <point x="339" y="649"/>
      <point x="339" y="621" type="curve" smooth="yes"/>
      <point x="339" y="597"/>
      <point x="360" y="577"/>
      <point x="389" y="577" type="curve" smooth="yes"/>
      <point x="422" y="577"/>
      <point x="446" y="603"/>
      <point x="446" y="636" type="curve" smooth="yes"/>
      <point x="446" y="693"/>
      <point x="393" y="740"/>
      <point x="309" y="740" type="curve" smooth="yes"/>
      <point x="215" y="740"/>
      <point x="156" y="682"/>
      <point x="156" y="611" type="curve" smooth="yes"/>
      <point x="156" y="558"/>
      <point x="189" y="520"/>
      <point x="248" y="468" type="curve"/>
      <point x="164" y="467"/>
      <point x="108" y="413"/>
      <point x="108" y="345" type="curve" smooth="yes"/>
      <point x="108" y="296"/>
      <point x="137" y="253"/>
    </contour>
  </outline>
</glyph>
<glyph name="copyright" format="1">
  <advance width="608"/>
  <unicode hex="00A9"/>
  <outline>
    <contour>
      <point x="12" y="336" type="curve" smooth="yes"/>
      <point x="12" y="236"/>
      <point x="60" y="148"/>
      <point x="142" y="94" type="curve" smooth="yes"/>
      <point x="190" y="62"/>
      <point x="244" y="46"/>
      <point x="302" y="46" type="curve" smooth="yes"/>
      <point x="380" y="46"/>
      <point x="450" y="76"/>
      <point x="504" y="130" type="curve" smooth="yes"/>
      <point x="560" y="186"/>
      <point x="590" y="260"/>
      <point x="590" y="336" type="curve" smooth="yes"/>
      <point x="590" y="412"/>
      <point x="558" y="488"/>
      <point x="506" y="540" type="curve" smooth="yes"/>
      <point x="452" y="594"/>
      <point x="376" y="624"/>
      <point x="302" y="624" type="curve" smooth="yes"/>
      <point x="224" y="624"/>
      <point x="152" y="594"/>
      <point x="96" y="540" type="curve" smooth="yes"/>
      <point x="42" y="484"/>
      <point x="12" y="412"/>
    </contour>
    <contour>
      <point x="302" y="576" type="curve" smooth="yes"/>
      <point x="366" y="576"/>
      <point x="426" y="552"/>
      <point x="472" y="506" type="curve" smooth="yes"/>
      <point x="516" y="462"/>
      <point x="542" y="400"/>
      <point x="542" y="336" type="curve" smooth="yes"/>
      <point x="542" y="272"/>
      <point x="518" y="212"/>
      <point x="472" y="166" type="curve" smooth="yes"/>
      <point x="426" y="120"/>
      <point x="364" y="94"/>
      <point x="302" y="94" type="curve" smooth="yes"/>
      <point x="238" y="94"/>
      <point x="178" y="120"/>
      <point x="132" y="166" type="curve" smooth="yes"/>
      <point x="88" y="210"/>
      <point x="60" y="272"/>
      <point x="60" y="336" type="curve" smooth="yes"/>
      <point x="60" y="398"/>
      <point x="86" y="460"/>
      <point x="132" y="506" type="curve" smooth="yes"/>
      <point x="178" y="552"/>
      <point x="238" y="576"/>
    </contour>
    <contour>
      <point x="386" y="250" type="line"/>
      <point x="364" y="228"/>
      <point x="332" y="214"/>
      <point x="302" y="214" type="curve" smooth="yes"/>
      <point x="270" y="214"/>
      <point x="240" y="228"/>
      <point x="216" y="250" type="curve" smooth="yes"/>
      <point x="194" y="272"/>
      <point x="180" y="304"/>
      <point x="180" y="336" type="curve" smooth="yes"/>
      <point x="180" y="366"/>
      <point x="194" y="398"/>
      <point x="216" y="420" type="curve" smooth="yes"/>
      <point x="240" y="444"/>
      <point x="270" y="456"/>
      <point x="302" y="456" type="curve" smooth="yes"/>
      <point x="334" y="456"/>
      <point x="364" y="444"/>
      <point x="386" y="420" type="curve"/>
      <point x="430" y="464" type="line"/>
      <point x="394" y="496"/>
      <point x="348" y="516"/>
      <point x="302" y="516" type="curve" smooth="yes"/>
      <point x="252" y="516"/>
      <point x="208" y="496"/>
      <point x="172" y="464" type="curve"/>
      <point x="140" y="428"/>
      <point x="120" y="384"/>
      <point x="120" y="336" type="curve" smooth="yes"/>
      <point x="120" y="274"/>
      <point x="150" y="218"/>
      <point x="202" y="184" type="curve" smooth="yes"/>
      <point x="232" y="164"/>
      <point x="264" y="154"/>
      <point x="302" y="154" type="curve" smooth="yes"/>
      <point x="350" y="154"/>
      <point x="394" y="174"/>
      <point x="428" y="206" type="curve"/>
    </contour>
  </outline>
</glyph>
<glyph name="guillemotleft" format="1">
  <advance width="608"/>
  <unicode hex="00AB"/>
  <outline>
    <contour>
      <point x="544" y="96" type="line"/>
      <point x="400" y="240" type="line"/>
      <point x="544" y="384" type="line"/>
      <point x="512" y="416" type="line"/>
      <point x="320" y="272" type="line"/>
      <point x="320" y="208" type="line"/>
      <point x="512" y="64" type="line"/>
    </contour>
    <contour>
      <point x="288" y="96" type="line"/>
      <point x="144" y="240" type="line"/>
      <point x="288" y="384" type="line"/>
      <point x="256" y="416" type="line"/>
      <point x="64" y="272" type="line"/>
      <point x="64" y="208" type="line"/>
      <point x="256" y="64" type="line"/>
    </contour>
  </outline>
</glyph>
<glyph name="registered" format="1">
  <advance width="602"/>
  <unicode hex="00AE"/>
  <outline>
    <contour>
      <point x="12" y="335" type="curve" smooth="yes"/>
      <point x="12" y="236"/>
      <point x="59" y="148"/>
      <point x="142" y="93" type="curve" smooth="yes"/>
      <point x="189" y="62"/>
      <point x="244" y="45"/>
      <point x="301" y="45" type="curve" smooth="yes"/>
      <point x="379" y="45"/>
      <point x="450" y="75"/>
      <point x="504" y="130" type="curve" smooth="yes"/>
      <point x="560" y="186"/>
      <point x="590" y="259"/>
      <point x="590" y="335" type="curve" smooth="yes"/>
      <point x="590" y="411"/>
      <point x="558" y="487"/>
      <point x="505" y="540" type="curve" smooth="yes"/>
      <point x="451" y="594"/>
      <point x="376" y="624"/>
      <point x="301" y="624" type="curve" smooth="yes"/>
      <point x="224" y="624"/>
      <point x="151" y="594"/>
      <point x="96" y="539" type="curve" smooth="yes"/>
      <point x="41" y="484"/>
      <point x="12" y="412"/>
    </contour>
    <contour>
      <point x="301" y="576" type="curve" smooth="yes"/>
      <point x="365" y="576"/>
      <point x="425" y="551"/>
      <point x="471" y="506" type="curve" smooth="yes"/>
      <point x="516" y="461"/>
      <point x="542" y="399"/>
      <point x="542" y="335" type="curve" smooth="yes"/>
      <point x="542" y="272"/>
      <point x="517" y="212"/>
      <point x="471" y="165" type="curve" smooth="yes"/>
      <point x="426" y="120"/>
      <point x="364" y="94"/>
      <point x="301" y="94" type="curve" smooth="yes"/>
      <point x="237" y="94"/>
      <point x="178" y="119"/>
      <point x="132" y="165" type="curve" smooth="yes"/>
      <point x="87" y="210"/>
      <point x="60" y="272"/>
      <point x="60" y="335" type="curve" smooth="yes"/>
      <point x="60" y="397"/>
      <point x="86" y="459"/>
      <point x="131" y="505" type="curve" smooth="yes"/>
      <point x="177" y="551"/>
      <point x="238" y="576"/>
    </contour>
    <contour>
      <point x="260" y="452" type="line"/>
      <point x="289" y="452" type="line" smooth="yes"/>
      <point x="332" y="452"/>
      <point x="353" y="439"/>
      <point x="353" y="408" type="curve" smooth="yes"/>
      <point x="353" y="378"/>
      <point x="331" y="363"/>
      <point x="288" y="363" type="curve" smooth="yes"/>
      <point x="260" y="363" type="line"/>
    </contour>
    <contour>
      <point x="260" y="230" type="line"/>
      <point x="260" y="312" type="line"/>
      <point x="269" y="312" type="line" smooth="yes"/>
      <point x="291" y="312"/>
      <point x="296" y="305"/>
      <point x="314" y="278" type="curve" smooth="yes"/>
      <point x="365" y="201" type="line" smooth="yes"/>
      <point x="375" y="185"/>
      <point x="383" y="176"/>
      <point x="400" y="176" type="curve" smooth="yes"/>
      <point x="430" y="176" type="line"/>
      <point x="428" y="230" type="line"/>
      <point x="418" y="230" type="line"/>
      <point x="367" y="307" type="line" smooth="yes"/>
      <point x="362" y="314"/>
      <point x="358" y="319"/>
      <point x="355" y="322" type="curve"/>
      <point x="393" y="335"/>
      <point x="416" y="367"/>
      <point x="416" y="406" type="curve" smooth="yes"/>
      <point x="416" y="475"/>
      <point x="369" y="505"/>
      <point x="276" y="505" type="curve" smooth="yes"/>
      <point x="196" y="506" type="line"/>
      <point x="196" y="452" type="line"/>
      <point x="203" y="452" type="line"/>
      <point x="203" y="230" type="line"/>
      <point x="196" y="230" type="line"/>
      <point x="196" y="176" type="line"/>
      <point x="270" y="176" type="line"/>
      <point x="270" y="230" type="line"/>
    </contour>
  </outline>
</glyph>
<glyph name="macron" format="1">
  <advance width="608"/>
  <unicode hex="00AF"/>
  <outline>
    <contour>
      <point x="448" y="640" type="line"/>
      <point x="160" y="640" type="line"/>
      <point x="160" y="576" type="line"/>
      <point x="448" y="576" type="line"/>
    </contour>
  </outline>
</glyph>
<glyph name="degree" format="1">
  <advance width="602"/>
  <unicode hex="00B0"/>
  <outline>
    <contour>
      <point x="160" y="576" type="curve" smooth="yes"/>
      <point x="160" y="498"/>
      <point x="226" y="432"/>
      <point x="304" y="432" type="curve" smooth="yes"/>
      <point x="384" y="432"/>
      <point x="448" y="498"/>
      <point x="448" y="576" type="curve" smooth="yes"/>
      <point x="448" y="654"/>
      <point x="384" y="720"/>
      <point x="304" y="720" type="curve" smooth="yes"/>
      <point x="226" y="720"/>
      <point x="160" y="654"/>
    </contour>
    <contour>
      <point x="224" y="576" type="curve" smooth="yes"/>
      <point x="224" y="620"/>
      <point x="260" y="656"/>
      <point x="304" y="656" type="curve" smooth="yes"/>
      <point x="348" y="656"/>
      <point x="384" y="620"/>
      <point x="384" y="576" type="curve" smooth="yes"/>
      <point x="384" y="532"/>
      <point x="348" y="496"/>
      <point x="304" y="496" type="curve" smooth="yes"/>
      <point x="260" y="496"/>
      <point x="224" y="532"/>
    </contour>
  </outline>
</glyph>
<glyph name="twosuperior" format="1">
  <advance width="602"/>
  <unicode hex="00B2"/>
  <outline>
    <contour>
      <point x="206" y="301" type="line"/>
      <point x="358" y="423"/>
      <point x="475" y="454"/>
      <point x="475" y="556" type="curve" smooth="yes"/>
      <point x="475" y="631"/>
      <point x="413" y="681"/>
      <point x="309" y="681" type="curve" smooth="yes"/>
      <point x="189" y="681"/>
      <point x="125" y="628"/>
      <point x="125" y="557" type="curve" smooth="yes"/>
      <point x="125" y="520"/>
      <point x="150" y="493"/>
      <point x="190" y="493" type="curve" smooth="yes"/>
      <point x="223" y="493"/>
      <point x="242" y="513"/>
      <point x="242" y="534" type="curve" smooth="yes"/>
      <point x="242" y="581"/>
      <point x="180" y="568"/>
      <point x="180" y="589" type="curve" smooth="yes"/>
      <point x="180" y="613"/>
      <point x="216" y="645"/>
      <point x="287" y="645" type="curve" smooth="yes"/>
      <point x="350" y="645"/>
      <point x="384" y="617"/>
      <point x="384" y="569" type="curve" smooth="yes"/>
      <point x="384" y="475"/>
      <point x="268" y="423"/>
      <point x="111" y="260" type="curve"/>
      <point x="111" y="234" type="line"/>
      <point x="465" y="234" type="line"/>
      <point x="481" y="379" type="line"/>
      <point x="442" y="379" type="line"/>
      <point x="425" y="313"/>
      <point x="426" y="301"/>
      <point x="389" y="301" type="curve" smooth="yes"/>
    </contour>
  </outline>
</glyph>
<glyph name="acute" format="1">
  <advance width="602"/>
  <unicode hex="00B4"/>
  <outline>
    <contour>
      <point x="232" y="528" type="line"/>
      <point x="415" y="613" type="line"/>
      <point x="435" y="621"/>
      <point x="448" y="640"/>
      <point x="448" y="664" type="curve" smooth="yes"/>
      <point x="448" y="696"/>
      <point x="424" y="720"/>
      <point x="392" y="720" type="curve" smooth="yes"/>
      <point x="376" y="720"/>
      <point x="362" y="714"/>
      <point x="352" y="704" type="curve" smooth="yes"/>
      <point x="208" y="560" type="line"/>
    </contour>
  </outline>
</glyph>
<glyph name="mu" format="1">
  <advance width="602"/>
  <unicode hex="00B5"/>
  <outline>
    <contour>
      <point x="457" y="67" type="line"/>
      <point x="532" y="416" type="line"/>
      <point x="457" y="417" type="line"/>
      <point x="411" y="190" type="line" smooth="yes"/>
      <point x="396" y="116"/>
      <point x="322" y="58"/>
      <point x="242" y="58" type="curve" smooth="yes"/>
      <point x="190" y="58"/>
      <point x="164" y="80"/>
      <point x="164" y="123" type="curve" smooth="yes"/>
      <point x="164" y="133"/>
      <point x="167" y="148"/>
      <point x="171" y="168" type="curve" smooth="yes"/>
      <point x="228" y="428" type="line"/>
      <point x="229" y="431"/>
      <point x="229" y="433"/>
      <point x="229" y="436" type="curve" smooth="yes"/>
      <point x="229" y="447"/>
      <point x="221" y="451"/>
      <point x="205" y="451" type="curve" smooth="yes"/>
      <point x="120" y="451" type="line"/>
      <point x="106" y="384" type="line"/>
      <point x="145" y="384" type="line"/>
      <point x="39" y="-130" type="line"/>
      <point x="108" y="-144" type="line"/>
      <point x="137" y="19" type="line"/>
      <point x="158" y="-2"/>
      <point x="184" y="-11"/>
      <point x="219" y="-11" type="curve" smooth="yes"/>
      <point x="280" y="-11"/>
      <point x="333" y="12"/>
      <point x="384" y="59" type="curve"/>
      <point x="374" y="24" type="line" smooth="yes"/>
      <point x="373" y="20"/>
      <point x="372" y="17"/>
      <point x="372" y="15" type="curve" smooth="yes"/>
      <point x="372" y="4"/>
      <point x="380" y="0"/>
      <point x="396" y="0" type="curve" smooth="yes"/>
      <point x="473" y="0" type="line"/>
      <point x="488" y="67" type="line"/>
    </contour>
  </outline>
</glyph>
<glyph name="periodcentered" format="1">
  <advance width="256"/>
  <unicode hex="00B7"/>
  <outline>
    <contour>
      <point x="128" y="416" type="curve" smooth="yes"/>
      <point x="92" y="416"/>
      <point x="64" y="388"/>
      <point x="64" y="352" type="curve" smooth="yes"/>
      <point x="64" y="316"/>
      <point x="92" y="288"/>
      <point x="128" y="288" type="curve" smooth="yes"/>
      <point x="164" y="288"/>
      <point x="192" y="316"/>
      <point x="192" y="352" type="curve" smooth="yes"/>
      <point x="192" y="388"/>
      <point x="164" y="416"/>
    </contour>
  </outline>
</glyph>
<glyph name="onesuperior" format="1">
  <advance width="602"/>
  <unicode hex="00B9"/>
  <outline>
    <contour>
      <point x="329" y="682" type="line"/>
      <point x="289" y="652"/>
      <point x="234" y="639"/>
      <point x="161" y="636" type="curve"/>
      <point x="161" y="601" type="line"/>
      <point x="240" y="601" type="line" smooth="yes"/>
      <point x="264" y="601"/>
      <point x="272" y="599"/>
      <point x="272" y="585" type="curve" smooth="yes"/>
      <point x="272" y="298" type="line" smooth="yes"/>
      <point x="272" y="278"/>
      <point x="262" y="272"/>
      <point x="233" y="272" type="curve" smooth="yes"/>
      <point x="166" y="272" type="line"/>
      <point x="166" y="234" type="line"/>
      <point x="466" y="234" type="line"/>
      <point x="466" y="272" type="line"/>
      <point x="404" y="272" type="line" smooth="yes"/>
      <point x="367" y="272"/>
      <point x="354" y="274"/>
      <point x="354" y="298" type="curve" smooth="yes"/>
      <point x="354" y="682" type="line"/>
    </contour>
  </outline>
</glyph>
<glyph name="ordmasculine" format="1">
  <advance width="448"/>
  <unicode hex="00BA"/>
  <outline>
    <contour>
      <point x="32" y="480" type="curve" smooth="yes"/>
      <point x="32" y="376"/>
      <point x="112" y="288"/>
      <point x="224" y="288" type="curve" smooth="yes"/>
      <point x="336" y="288"/>
      <point x="416" y="376"/>
      <point x="416" y="480" type="curve" smooth="yes"/>
      <point x="416" y="584"/>
      <point x="336" y="672"/>
      <point x="224" y="672" type="curve" smooth="yes"/>
      <point x="112" y="672"/>
      <point x="32" y="584"/>
    </contour>
    <contour>
      <point x="224" y="624" type="curve" smooth="yes"/>
      <point x="288" y="624"/>
      <point x="312" y="552"/>
      <point x="312" y="480" type="curve" smooth="yes"/>
      <point x="312" y="408"/>
      <point x="288" y="336"/>
      <point x="224" y="336" type="curve" smooth="yes"/>
      <point x="160" y="336"/>
      <point x="136" y="408"/>
      <point x="136" y="480" type="curve" smooth="yes"/>
      <point x="136" y="552"/>
      <point x="160" y="624"/>
    </contour>
    <contour>
      <point x="400" y="224" type="line"/>
      <point x="48" y="224" type="line"/>
      <point x="48" y="160" type="line"/>
      <point x="400" y="160" type="line"/>
    </contour>
  </outline>
</glyph>
<glyph name="onequarter" format="1">
  <advance width="602"/>
  <unicode hex="00BC"/>
  <outline>
    <contour>
      <point x="197" y="754" type="line"/>
      <point x="163" y="729"/>
      <point x="116" y="718"/>
      <point x="54" y="716" type="curve"/>
      <point x="54" y="687" type="line"/>
      <point x="121" y="687" type="line" smooth="yes"/>
      <point x="141" y="687"/>
      <point x="149" y="686"/>
      <point x="149" y="674" type="curve" smooth="yes"/>
      <point x="149" y="435" type="line" smooth="yes"/>
      <point x="149" y="418"/>
      <point x="139" y="414"/>
      <point x="114" y="414" type="curve" smooth="yes"/>
      <point x="58" y="414" type="line"/>
      <point x="58" y="382" type="line"/>
      <point x="304" y="382" type="line"/>
      <point x="304" y="414" type="line"/>
      <point x="261" y="414" type="line" smooth="yes"/>
      <point x="230" y="414"/>
      <point x="218" y="415"/>
      <point x="218" y="435" type="curve" smooth="yes"/>
      <point x="218" y="754" type="line"/>
    </contour>
    <contour>
      <point x="567" y="533" type="line"/>
      <point x="12" y="173" type="line"/>
      <point x="35" y="138" type="line"/>
      <point x="589" y="498" type="line"/>
    </contour>
    <contour>
      <point x="486" y="298" type="line"/>
      <point x="262" y="53" type="line"/>
      <point x="262" y="18" type="line"/>
      <point x="446" y="18" type="line"/>
      <point x="446" y="-25" type="line" smooth="yes"/>
      <point x="446" y="-38"/>
      <point x="442" y="-43"/>
      <point x="421" y="-43" type="curve" smooth="yes"/>
      <point x="379" y="-43" type="line"/>
      <point x="379" y="-74" type="line"/>
      <point x="582" y="-74" type="line"/>
      <point x="582" y="-43" type="line"/>
      <point x="540" y="-43" type="line" smooth="yes"/>
      <point x="520" y="-43"/>
      <point x="515" y="-38"/>
      <point x="515" y="-25" type="curve" smooth="yes"/>
      <point x="515" y="19" type="line"/>
      <point x="594" y="19" type="line"/>
      <point x="594" y="54" type="line"/>
      <point x="515" y="54" type="line"/>
      <point x="515" y="298" type="line"/>
    </contour>
    <contour>
      <point x="447" y="199" type="line"/>
      <point x="447" y="54" type="line"/>
      <point x="311" y="54" type="line"/>
    </contour>
  </outline>
</glyph>
<glyph name="questiondown" format="1">
  <advance width="440"/>
  <unicode hex="00BF"/>
  <outline>
    <contour>
      <point x="264" y="656" type="curve" smooth="yes"/>
      <point x="264" y="692"/>
      <point x="236" y="720"/>
      <point x="200" y="720" type="curve" smooth="yes"/>
      <point x="164" y="720"/>
      <point x="136" y="692"/>
      <point x="136" y="656" type="curve" smooth="yes"/>
      <point x="136" y="620"/>
      <point x="164" y="592"/>
      <point x="200" y="592" type="curve" smooth="yes"/>
      <point x="236" y="592"/>
      <point x="264" y="620"/>
    </contour>
    <contour>
      <point x="216" y="-16" type="curve" smooth="yes"/>
      <point x="328" y="-16"/>
      <point x="408" y="32"/>
      <point x="408" y="144" type="curve" smooth="yes"/>
      <point x="408" y="312"/>
      <point x="224" y="288"/>
      <point x="224" y="512" type="curve"/>
      <point x="176" y="512" type="line"/>
      <point x="176" y="256"/>
      <point x="312" y="272"/>
      <point x="312" y="144" type="curve" smooth="yes"/>
      <point x="312" y="80"/>
      <point x="280" y="32"/>
      <point x="216" y="32" type="curve" smooth="yes"/>
      <point x="158" y="32"/>
      <point x="119" y="65"/>
      <point x="113" y="101" type="curve"/>
      <point x="132" y="110"/>
      <point x="144" y="129"/>
      <point x="144" y="152" type="curve" smooth="yes"/>
      <point x="144" y="184"/>
      <point x="120" y="208"/>
      <point x="88" y="208" type="curve" smooth="yes"/>
      <point x="56" y="208"/>
      <point x="32" y="184"/>
      <point x="32" y="152" type="curve" smooth="yes"/>
      <point x="32" y="80"/>
      <point x="96" y="-16"/>
    </contour>
  </outline>
</glyph>
<glyph name="Egrave" format="1">
  <advance width="608"/>
  <unicode hex="00C8"/>
  <outline>
    <contour>
      <point x="384" y="736" type="line"/>
      <point x="408" y="768" type="line"/>
      <point x="264" y="912" type="line" smooth="yes"/>
      <point x="254" y="922"/>
      <point x="240" y="928"/>
      <point x="224" y="928" type="curve" smooth="yes"/>
      <point x="192" y="928"/>
      <point x="168" y="904"/>
      <point x="168" y="872" type="curve" smooth="yes"/>
      <point x="168" y="850"/>
      <point x="180" y="831"/>
      <point x="198" y="822" type="curve"/>
      <point x="199" y="821"/>
      <point x="200" y="821"/>
      <point x="201" y="821" type="curve"/>
    </contour>
    <contour>
      <point x="560" y="256" type="line"/>
      <point x="528" y="256" type="line"/>
      <point x="428" y="56" type="line"/>
      <point x="240" y="56" type="line"/>
      <point x="240" y="352" type="line"/>
      <point x="344" y="352" type="line"/>
      <point x="384" y="272" type="line"/>
      <point x="416" y="272" type="line"/>
      <point x="416" y="488" type="line"/>
      <point x="384" y="488" type="line"/>
      <point x="344" y="408" type="line"/>
      <point x="240" y="408" type="line"/>
      <point x="240" y="648" type="line"/>
      <point x="428" y="648" type="line"/>
      <point x="496" y="512" type="line"/>
      <point x="528" y="512" type="line"/>
      <point x="496" y="704" type="line"/>
      <point x="80" y="704" type="line"/>
      <point x="80" y="680" type="line"/>
      <point x="144" y="648" type="line"/>
      <point x="144" y="56" type="line"/>
      <point x="80" y="24" type="line"/>
      <point x="80" y="0" type="line"/>
      <point x="528" y="0" type="line"/>
    </contour>
  </outline>
</glyph>
<glyph name="Ecircumflex" format="1">
  <advance width="608"/>
  <unicode hex="00CA"/>
  <outline>
    <contour>
      <point x="160" y="736" type="line"/>
      <point x="304" y="880" type="line"/>
      <point x="448" y="736" type="line"/>
      <point x="480" y="768" type="line"/>
      <point x="336" y="960" type="line"/>
      <point x="272" y="960" type="line"/>
      <point x="128" y="768" type="line"/>
    </contour>
    <contour>
      <point x="576" y="256" type="line"/>
      <point x="544" y="256" type="line"/>
      <point x="444" y="56" type="line"/>
      <point x="256" y="56" type="line"/>
      <point x="256" y="352" type="line"/>
      <point x="360" y="352" type="line"/>
      <point x="400" y="272" type="line"/>
      <point x="432" y="272" type="line"/>
      <point x="432" y="488" type="line"/>
      <point x="400" y="488" type="line"/>
      <point x="360" y="408" type="line"/>
      <point x="256" y="408" type="line"/>
      <point x="256" y="648" type="line"/>
      <point x="444" y="648" type="line"/>
      <point x="512" y="512" type="line"/>
      <point x="544" y="512" type="line"/>
      <point x="512" y="704" type="line"/>
      <point x="96" y="704" type="line"/>
      <point x="96" y="680" type="line"/>
      <point x="160" y="648" type="line"/>
      <point x="160" y="56" type="line"/>
      <point x="96" y="24" type="line"/>
      <point x="96" y="0" type="line"/>
      <point x="544" y="0" type="line"/>
    </contour>
  </outline>
</glyph>
<glyph name="Igrave" format="1">
  <advance width="608"/>
  <unicode hex="00CC"/>
  <outline>
    <contour>
      <point x="384" y="736" type="line"/>
      <point x="408" y="768" type="line"/>
      <point x="264" y="912" type="line" smooth="yes"/>
      <point x="254" y="922"/>
      <point x="240" y="928"/>
      <point x="224" y="928" type="curve" smooth="yes"/>
      <point x="192" y="928"/>
      <point x="168" y="904"/>
      <point x="168" y="872" type="curve" smooth="yes"/>
      <point x="168" y="850"/>
      <point x="180" y="831"/>
      <point x="198" y="822" type="curve"/>
      <point x="199" y="821"/>
      <point x="200" y="821"/>
      <point x="201" y="821" type="curve"/>
    </contour>
    <contour>
      <point x="448" y="24" type="line"/>
      <point x="352" y="56" type="line"/>
      <point x="352" y="648" type="line"/>
      <point x="448" y="680" type="line"/>
      <point x="448" y="704" type="line"/>
      <point x="160" y="704" type="line"/>
      <point x="160" y="680" type="line"/>
      <point x="256" y="648" type="line"/>
      <point x="256" y="56" type="line"/>
      <point x="160" y="24" type="line"/>
      <point x="160" y="0" type="line"/>
      <point x="448" y="0" type="line"/>
    </contour>
  </outline>
</glyph>
<glyph name="Eth" format="1">
  <advance width="608"/>
  <unicode hex="00D0"/>
  <outline>
    <contour>
      <point x="240" y="0" type="line" smooth="yes"/>
      <point x="432" y="0"/>
      <point x="544" y="112"/>
      <point x="544" y="352" type="curve" smooth="yes"/>
      <point x="544" y="592"/>
      <point x="432" y="704"/>
      <point x="240" y="704" type="curve" smooth="yes"/>
      <point x="64" y="704" type="line"/>
      <point x="64" y="680" type="line"/>
      <point x="128" y="648" type="line"/>
      <point x="128" y="384" type="line"/>
      <point x="32" y="384" type="line"/>
      <point x="32" y="320" type="line"/>
      <point x="128" y="320" type="line"/>
      <point x="128" y="56" type="line"/>
      <point x="64" y="24" type="line"/>
      <point x="64" y="0" type="line"/>
    </contour>
    <contour>
      <point x="224" y="56" type="line"/>
      <point x="224" y="320" type="line"/>
      <point x="320" y="320" type="line"/>
      <point x="320" y="384" type="line"/>
      <point x="224" y="384" type="line"/>
      <point x="224" y="648" type="line"/>
      <point x="240" y="648" type="line" smooth="yes"/>
      <point x="368" y="648"/>
      <point x="432" y="560"/>
      <point x="432" y="352" type="curve" smooth="yes"/>
      <point x="432" y="144"/>
      <point x="368" y="56"/>
      <point x="240" y="56" type="curve" smooth="yes"/>
    </contour>
  </outline>
</glyph>
<glyph name="Oacute" format="1">
  <advance width="608"/>
  <unicode hex="00D3"/>
  <outline>
    <contour>
      <point x="192" y="736" type="line"/>
      <point x="375" y="821" type="line"/>
      <point x="395" y="829"/>
      <point x="408" y="848"/>
      <point x="408" y="872" type="curve" smooth="yes"/>
      <point x="408" y="904"/>
      <point x="384" y="928"/>
      <point x="352" y="928" type="curve" smooth="yes"/>
      <point x="336" y="928"/>
      <point x="322" y="922"/>
      <point x="312" y="912" type="curve" smooth="yes"/>
      <point x="168" y="768" type="line"/>
    </contour>
    <contour>
      <point x="64" y="352" type="curve" smooth="yes"/>
      <point x="64" y="128"/>
      <point x="152" y="-16"/>
      <point x="304" y="-16" type="curve" smooth="yes"/>
      <point x="456" y="-16"/>
      <point x="544" y="128"/>
      <point x="544" y="352" type="curve" smooth="yes"/>
      <point x="544" y="576"/>
      <point x="456" y="720"/>
      <point x="304" y="720" type="curve" smooth="yes"/>
      <point x="152" y="720"/>
      <point x="64" y="576"/>
    </contour>
    <contour>
      <point x="304" y="664" type="curve" smooth="yes"/>
      <point x="408" y="664"/>
      <point x="432" y="544"/>
      <point x="432" y="352" type="curve" smooth="yes"/>
      <point x="432" y="160"/>
      <point x="408" y="40"/>
      <point x="304" y="40" type="curve" smooth="yes"/>
      <point x="200" y="40"/>
      <point x="176" y="160"/>
      <point x="176" y="352" type="curve" smooth="yes"/>
      <point x="176" y="544"/>
      <point x="200" y="664"/>
    </contour>
  </outline>
</glyph>
<glyph name="Odieresis" format="1">
  <advance width="608"/>
  <unicode hex="00D6"/>
  <outline>
    <contour>
      <point x="416" y="864" type="curve" smooth="yes"/>
      <point x="380" y="864"/>
      <point x="352" y="836"/>
      <point x="352" y="800" type="curve" smooth="yes"/>
      <point x="352" y="764"/>
      <point x="380" y="736"/>
      <point x="416" y="736" type="curve" smooth="yes"/>
      <point x="452" y="736"/>
      <point x="480" y="764"/>
      <point x="480" y="800" type="curve" smooth="yes"/>
      <point x="480" y="836"/>
      <point x="452" y="864"/>
    </contour>
    <contour>
      <point x="192" y="864" type="curve" smooth="yes"/>
      <point x="156" y="864"/>
      <point x="128" y="836"/>
      <point x="128" y="800" type="curve" smooth="yes"/>
      <point x="128" y="764"/>
      <point x="156" y="736"/>
      <point x="192" y="736" type="curve" smooth="yes"/>
      <point x="228" y="736"/>
      <point x="256" y="764"/>
      <point x="256" y="800" type="curve" smooth="yes"/>
      <point x="256" y="836"/>
      <point x="228" y="864"/>
    </contour>
    <contour>
      <point x="64" y="352" type="curve" smooth="yes"/>
      <point x="64" y="128"/>
      <point x="152" y="-16"/>
      <point x="304" y="-16" type="curve" smooth="yes"/>
      <point x="456" y="-16"/>
      <point x="544" y="128"/>
      <point x="544" y="352" type="curve" smooth="yes"/>
      <point x="544" y="576"/>
      <point x="456" y="720"/>
      <point x="304" y="720" type="curve" smooth="yes"/>
      <point x="152" y="720"/>
      <point x="64" y="576"/>
    </contour>
    <contour>
      <point x="304" y="664" type="curve" smooth="yes"/>
      <point x="408" y="664"/>
      <point x="432" y="544"/>
      <point x="432" y="352" type="curve" smooth="yes"/>
      <point x="432" y="160"/>
      <point x="408" y="40"/>
      <point x="304" y="40" type="curve" smooth="yes"/>
      <point x="200" y="40"/>
      <point x="176" y="160"/>
      <point x="176" y="352" type="curve" smooth="yes"/>
      <point x="176" y="544"/>
      <point x="200" y="664"/>
    </contour>
  </outline>
</glyph>
<glyph name="multiply" format="1">
  <advance width="448"/>
  <unicode hex="00D7"/>
  <outline>
    <contour>
      <point x="372" y="48" type="line"/>
      <point x="416" y="92" type="line"/>
      <point x="268" y="240" type="line"/>
      <point x="416" y="388" type="line"/>
      <point x="372" y="432" type="line"/>
      <point x="224" y="284" type="line"/>
      <point x="76" y="432" type="line"/>
      <point x="32" y="388" type="line"/>
      <point x="180" y="240" type="line"/>
      <point x="32" y="92" type="line"/>
      <point x="76" y="48" type="line"/>
      <point x="224" y="196" type="line"/>
    </contour>
  </outline>
</glyph>
<glyph name="igrave" format="1">
  <advance width="608"/>
  <unicode hex="00EC"/>
  <outline>
    <contour>
      <point x="376" y="528" type="line"/>
      <point x="400" y="560" type="line"/>
      <point x="256" y="704" type="line" smooth="yes"/>
      <point x="246" y="714"/>
      <point x="232" y="720"/>
      <point x="216" y="720" type="curve" smooth="yes"/>
      <point x="184" y="720"/>
      <point x="160" y="696"/>
      <point x="160" y="664" type="curve" smooth="yes"/>
      <point x="160" y="642"/>
      <point x="172" y="623"/>
      <point x="190" y="614" type="curve"/>
      <point x="191" y="613"/>
      <point x="192" y="613"/>
      <point x="193" y="613" type="curve"/>
    </contour>
    <contour>
      <point x="446" y="24" type="line"/>
      <point x="382" y="56" type="line"/>
      <point x="382" y="480" type="line"/>
      <point x="226" y="480" type="line"/>
      <point x="226" y="456" type="line"/>
      <point x="290" y="424" type="line"/>
      <point x="290" y="56" type="line"/>
      <point x="226" y="24" type="line"/>
      <point x="226" y="0" type="line"/>
      <point x="446" y="0" type="line"/>
    </contour>
  </outline>
</glyph>
<glyph name="iacute" format="1">
  <advance width="608"/>
  <unicode hex="00ED"/>
  <outline>
    <contour>
      <point x="232" y="528" type="line"/>
      <point x="415" y="613" type="line"/>
      <point x="435" y="621"/>
      <point x="448" y="640"/>
      <point x="448" y="664" type="curve" smooth="yes"/>
      <point x="448" y="696"/>
      <point x="424" y="720"/>
      <point x="392" y="720" type="curve" smooth="yes"/>
      <point x="376" y="720"/>
      <point x="362" y="714"/>
      <point x="352" y="704" type="curve" smooth="yes"/>
      <point x="208" y="560" type="line"/>
    </contour>
    <contour>
      <point x="446" y="24" type="line"/>
      <point x="382" y="56" type="line"/>
      <point x="382" y="480" type="line"/>
      <point x="226" y="480" type="line"/>
      <point x="226" y="456" type="line"/>
      <point x="290" y="424" type="line"/>
      <point x="290" y="56" type="line"/>
      <point x="226" y="24" type="line"/>
      <point x="226" y="0" type="line"/>
      <point x="446" y="0" type="line"/>
    </contour>
  </outline>
</glyph>
<glyph name="icircumflex" format="1">
  <advance width="608"/>
  <unicode hex="00EE"/>
  <outline>
    <contour>
      <point x="160" y="544" type="line"/>
      <point x="304" y="688" type="line"/>
      <point x="448" y="544" type="line"/>
      <point x="480" y="576" type="line"/>
      <point x="336" y="768" type="line"/>
      <point x="272" y="768" type="line"/>
      <point x="128" y="576" type="line"/>
    </contour>
    <contour>
      <point x="446" y="24" type="line"/>
      <point x="382" y="56" type="line"/>
      <point x="382" y="480" type="line"/>
      <point x="226" y="480" type="line"/>
      <point x="226" y="456" type="line"/>
      <point x="290" y="424" type="line"/>
      <point x="290" y="56" type="line"/>
      <point x="226" y="24" type="line"/>
      <point x="226" y="0" type="line"/>
      <point x="446" y="0" type="line"/>
    </contour>
  </outline>
</glyph>
<glyph name="divide" format="1">
  <advance width="544"/>
  <unicode hex="00F7"/>
  <outline>
    <contour>
      <point x="272" y="480" type="curve" smooth="yes"/>
      <point x="236" y="480"/>
      <point x="208" y="452"/>
      <point x="208" y="416" type="curve" smooth="yes"/>
      <point x="208" y="380"/>
      <point x="236" y="352"/>
      <point x="272" y="352" type="curve" smooth="yes"/>
      <point x="308" y="352"/>
      <point x="336" y="380"/>
      <point x="336" y="416" type="curve" smooth="yes"/>
      <point x="336" y="452"/>
      <point x="308" y="480"/>
    </contour>
    <contour>
      <point x="512" y="208" type="line"/>
      <point x="512" y="272" type="line"/>
      <point x="32" y="272" type="line"/>
      <point x="32" y="208" type="line"/>
    </contour>
    <contour>
      <point x="272" y="128" type="curve" smooth="yes"/>
      <point x="236" y="128"/>
      <point x="208" y="100"/>
      <point x="208" y="64" type="curve" smooth="yes"/>
      <point x="208" y="28"/>
      <point x="236" y="0"/>
      <point x="272" y="0" type="curve" smooth="yes"/>
      <point x="308" y="0"/>
      <point x="336" y="28"/>
      <point x="336" y="64" type="curve" smooth="yes"/>
      <point x="336" y="100"/>
      <point x="308" y="128"/>
    </contour>
  </outline>
</glyph>
<glyph name="oslash" format="1">
  <advance width="544"/>
  <unicode hex="00F8"/>
  <outline>
    <contour>
      <point x="272" y="-16" type="curve" smooth="yes"/>
      <point x="424" y="-16"/>
      <point x="512" y="104"/>
      <point x="512" y="240" type="curve" smooth="yes"/>
      <point x="512" y="299"/>
      <point x="495" y="355"/>
      <point x="464" y="400" type="curve"/>
      <point x="512" y="448" type="line"/>
      <point x="480" y="480" type="line"/>
      <point x="434" y="434" type="line"/>
      <point x="394" y="472"/>
      <point x="339" y="496"/>
      <point x="272" y="496" type="curve" smooth="yes"/>
      <point x="120" y="496"/>
      <point x="32" y="376"/>
      <point x="32" y="240" type="curve" smooth="yes"/>
      <point x="32" y="181"/>
      <point x="49" y="125"/>
      <point x="80" y="80" type="curve"/>
      <point x="32" y="32" type="line"/>
      <point x="64" y="0" type="line"/>
      <point x="110" y="46" type="line"/>
      <point x="150" y="8"/>
      <point x="205" y="-16"/>
    </contour>
    <contour>
      <point x="136" y="240" type="curve" smooth="yes"/>
      <point x="136" y="384"/>
      <point x="192" y="448"/>
      <point x="272" y="448" type="curve" smooth="yes"/>
      <point x="318" y="448"/>
      <point x="357" y="427"/>
      <point x="381" y="381" type="curve"/>
      <point x="146" y="146" type="line"/>
      <point x="140" y="172"/>
      <point x="136" y="204"/>
    </contour>
    <contour>
      <point x="272" y="32" type="curve" smooth="yes"/>
      <point x="226" y="32"/>
      <point x="187" y="53"/>
      <point x="163" y="99" type="curve"/>
      <point x="398" y="334" type="line"/>
      <point x="404" y="308"/>
      <point x="408" y="276"/>
      <point x="408" y="240" type="curve" smooth="yes"/>
      <point x="408" y="96"/>
      <point x="352" y="32"/>
    </contour>
  </outline>
</glyph>
<glyph name="udieresis" format="1">
  <advance width="608"/>
  <unicode hex="00FC"/>
  <outline>
    <contour>
      <point x="192" y="704" type="curve" smooth="yes"/>
      <point x="156" y="704"/>
      <point x="128" y="676"/>
      <point x="128" y="640" type="curve" smooth="yes"/>
      <point x="128" y="604"/>
      <point x="156" y="576"/>
      <point x="192" y="576" type="curve" smooth="yes"/>
      <point x="228" y="576"/>
      <point x="256" y="604"/>
      <point x="256" y="640" type="curve" smooth="yes"/>
      <point x="256" y="676"/>
      <point x="228" y="704"/>
    </contour>
    <contour>
      <point x="416" y="704" type="curve" smooth="yes"/>
      <point x="380" y="704"/>
      <point x="352" y="676"/>
      <point x="352" y="640" type="curve" smooth="yes"/>
      <point x="352" y="604"/>
      <point x="380" y="576"/>
      <point x="416" y="576" type="curve" smooth="yes"/>
      <point x="452" y="576"/>
      <point x="480" y="604"/>
      <point x="480" y="640" type="curve" smooth="yes"/>
      <point x="480" y="676"/>
      <point x="452" y="704"/>
    </contour>
    <contour>
      <point x="388" y="48" type="curve" smooth="yes"/>
      <point x="400" y="60" type="line"/>
      <point x="400" y="0" type="line"/>
      <point x="544" y="0" type="line"/>
      <point x="544" y="24" type="line"/>
      <point x="480" y="56" type="line"/>
      <point x="480" y="480" type="line"/>
      <point x="324" y="480" type="line"/>
      <point x="324" y="456" type="line"/>
      <point x="388" y="424" type="line"/>
      <point x="388" y="96" type="line"/>
      <point x="352" y="60"/>
      <point x="328" y="40"/>
      <point x="296" y="40" type="curve" smooth="yes"/>
      <point x="248" y="40"/>
      <point x="220" y="80"/>
      <point x="220" y="160" type="curve" smooth="yes"/>
      <point x="220" y="480" type="line"/>
      <point x="64" y="480" type="line"/>
      <point x="64" y="456" type="line"/>
      <point x="128" y="424" type="line"/>
      <point x="128" y="176" type="line" smooth="yes"/>
      <point x="128" y="64"/>
      <point x="152" y="-16"/>
      <point x="264" y="-16" type="curve" smooth="yes"/>
      <point x="304" y="-16"/>
      <point x="340" y="0"/>
    </contour>
  </outline>
</glyph>
<glyph name="dotlessi" format="1">
  <advance width="284"/>
  <unicode hex="0131"/>
  <outline>
    <contour>
      <point x="252" y="24" type="line"/>
      <point x="188" y="56" type="line"/>
      <point x="188" y="480" type="line"/>
      <point x="32" y="480" type="line"/>
      <point x="32" y="456" type="line"/>
      <point x="96" y="424" type="line"/>
      <point x="96" y="56" type="line"/>
      <point x="32" y="24" type="line"/>
      <point x="32" y="0" type="line"/>
      <point x="252" y="0" type="line"/>
    </contour>
  </outline>
</glyph>
<glyph name="lslash" format="1">
  <advance width="256"/>
  <unicode hex="0142"/>
  <outline>
    <contour>
      <point x="236" y="0" type="line"/>
      <point x="236" y="24" type="line"/>
      <point x="172" y="56" type="line"/>
      <point x="172" y="334" type="line"/>
      <point x="240" y="368" type="line"/>
      <point x="240" y="408" type="line"/>
      <point x="172" y="374" type="line"/>
      <point x="172" y="704" type="line"/>
      <point x="16" y="704" type="line"/>
      <point x="16" y="680" type="line"/>
      <point x="80" y="648" type="line"/>
      <point x="80" y="328" type="line"/>
      <point x="16" y="296" type="line"/>
      <point x="16" y="256" type="line"/>
      <point x="80" y="288" type="line"/>
      <point x="80" y="56" type="line"/>
      <point x="16" y="24" type="line"/>
      <point x="16" y="0" type="line"/>
    </contour>
  </outline>
</glyph>
<glyph name="zcaron" format="1">
  <advance width="608"/>
  <unicode hex="017E"/>
  <outline>
    <contour>
      <point x="160" y="768" type="line"/>
      <point x="128" y="736" type="line"/>
      <point x="272" y="544" type="line"/>
      <point x="336" y="544" type="line"/>
      <point x="480" y="736" type="line"/>
      <point x="448" y="768" type="line"/>
      <point x="304" y="624" type="line"/>
    </contour>
    <contour>
      <point x="472" y="0" type="line"/>
      <point x="504" y="176" type="line"/>
      <point x="472" y="176" type="line"/>
      <point x="396" y="56" type="line"/>
      <point x="213" y="56" type="line"/>
      <point x="464" y="456" type="line"/>
      <point x="464" y="480" type="line"/>
      <point x="128" y="480" type="line"/>
      <point x="96" y="304" type="line"/>
      <point x="128" y="304" type="line"/>
      <point x="204" y="424" type="line"/>
      <point x="347" y="424" type="line"/>
      <point x="96" y="24" type="line"/>
      <point x="96" y="0" type="line"/>
    </contour>
  </outline>
</glyph>
<glyph name="florin" format="1">
  <advance width="608"/>
  <unicode hex="0192"/>
  <outline>
    <contour>
      <point x="174" y="-208" type="curve" smooth="yes"/>
      <point x="290" y="-208"/>
      <point x="348" y="-130"/>
      <point x="348" y="-32" type="curve" smooth="yes"/>
      <point x="348" y="352" type="line"/>
      <point x="502" y="352" type="line"/>
      <point x="502" y="400" type="line"/>
      <point x="348" y="400" type="line"/>
      <point x="348" y="496" type="line" smooth="yes"/>
      <point x="348" y="560"/>
      <point x="382" y="592"/>
      <point x="414" y="592" type="curve" smooth="yes"/>
      <point x="430" y="592"/>
      <point x="446" y="592"/>
      <point x="446" y="552" type="curve" smooth="yes"/>
      <point x="446" y="520"/>
      <point x="470" y="496"/>
      <point x="502" y="496" type="curve" smooth="yes"/>
      <point x="534" y="496"/>
      <point x="558" y="520"/>
      <point x="558" y="552" type="curve" smooth="yes"/>
      <point x="558" y="624"/>
      <point x="470" y="638"/>
      <point x="430" y="640" type="curve" smooth="yes"/>
      <point x="314" y="640"/>
      <point x="256" y="562"/>
      <point x="256" y="464" type="curve" smooth="yes"/>
      <point x="256" y="400" type="line"/>
      <point x="104" y="400" type="line"/>
      <point x="104" y="344" type="line"/>
      <point x="256" y="344" type="line"/>
      <point x="256" y="-64" type="line" smooth="yes"/>
      <point x="256" y="-128"/>
      <point x="222" y="-160"/>
      <point x="190" y="-160" type="curve" smooth="yes"/>
      <point x="174" y="-160"/>
      <point x="158" y="-160"/>
      <point x="158" y="-120" type="curve" smooth="yes"/>
      <point x="158" y="-88"/>
      <point x="134" y="-64"/>
      <point x="102" y="-64" type="curve" smooth="yes"/>
      <point x="70" y="-64"/>
      <point x="46" y="-88"/>
      <point x="46" y="-120" type="curve" smooth="yes"/>
      <point x="46" y="-192"/>
      <point x="134" y="-206"/>
    </contour>
  </outline>
</glyph>
<glyph name="tilde" format="1">
  <advance width="608"/>
  <unicode hex="02DC"/>
  <outline>
    <contour>
      <point x="96" y="608" type="line"/>
      <point x="128" y="632"/>
      <point x="160" y="656"/>
      <point x="208" y="656" type="curve" smooth="yes"/>
      <point x="256" y="656"/>
      <point x="336" y="576"/>
      <point x="400" y="576" type="curve" smooth="yes"/>
      <point x="464" y="576"/>
      <point x="512" y="616"/>
      <point x="544" y="640" type="curve"/>
      <point x="512" y="704" type="line"/>
      <point x="480" y="680"/>
      <point x="448" y="656"/>
      <point x="400" y="656" type="curve" smooth="yes"/>
      <point x="352" y="656"/>
      <point x="272" y="736"/>
      <point x="208" y="736" type="curve" smooth="yes"/>
      <point x="144" y="736"/>
      <point x="96" y="696"/>
      <point x="64" y="672" type="curve"/>
    </contour>
  </outline>
</glyph>
<glyph name="hungarumlaut" format="1">
  <advance width="608"/>
  <unicode hex="02DD"/>
  <outline>
    <contour>
      <point x="174" y="528" type="line"/>
      <point x="273" y="623" type="line"/>
      <point x="274" y="624" type="line" smooth="yes"/>
      <point x="284" y="634"/>
      <point x="290" y="648"/>
      <point x="290" y="664" type="curve" smooth="yes"/>
      <point x="290" y="696"/>
      <point x="266" y="720"/>
      <point x="234" y="720" type="curve" smooth="yes"/>
      <point x="208" y="720"/>
      <point x="187" y="704"/>
      <point x="180" y="680" type="curve" smooth="yes"/>
      <point x="142" y="544" type="line"/>
    </contour>
    <contour>
      <point x="350" y="528" type="line"/>
      <point x="449" y="623" type="line"/>
      <point x="450" y="624" type="line" smooth="yes"/>
      <point x="460" y="634"/>
      <point x="466" y="648"/>
      <point x="466" y="664" type="curve" smooth="yes"/>
      <point x="466" y="696"/>
      <point x="442" y="720"/>
      <point x="410" y="720" type="curve" smooth="yes"/>
      <point x="384" y="720"/>
      <point x="363" y="704"/>
      <point x="356" y="680" type="curve" smooth="yes"/>
      <point x="318" y="544" type="line"/>
    </contour>
  </outline>
</glyph>
<glyph name="emdash" format="1">
  <advance width="1000"/>
  <unicode hex="2014"/>
  <outline>
    <contour>
      <point x="1000" y="320" type="line"/>
      <point x="0" y="320" type="line"/>
      <point x="0" y="256" type="line"/>
      <point x="1000" y="256" type="line"/>
    </contour>
  </outline>
</glyph>
<glyph name="quoteright" format="1">
  <advance width="200"/>
  <unicode hex="2019"/>
  <outline>
    <contour>
      <point x="64" y="432" type="line"/>
      <point x="128" y="480"/>
      <point x="168" y="544"/>
      <point x="168" y="624" type="curve" smooth="yes"/>
      <point x="168" y="685"/>
      <point x="139" y="717"/>
      <point x="102" y="720" type="curve"/>
      <point x="102" y="720"/>
      <point x="101" y="720"/>
      <point x="101" y="720" type="curve"/>
      <point x="96" y="720"/>
      <point x="96" y="720"/>
      <point x="96" y="720" type="curve"/>
      <point x="60" y="720"/>
      <point x="32" y="692"/>
      <point x="32" y="656" type="curve" smooth="yes"/>
      <point x="32" y="620"/>
      <point x="60" y="592"/>
      <point x="96" y="592" type="curve" smooth="yes"/>
      <point x="99" y="592"/>
      <point x="101" y="592"/>
      <point x="104" y="593" type="curve"/>
      <point x="102" y="533"/>
      <point x="78" y="494"/>
      <point x="40" y="456" type="curve"/>
    </contour>
  </outline>
</glyph>
<glyph name="quotedblright" format="1">
  <advance width="408"/>
  <unicode hex="201D"/>
  <outline>
    <contour>
      <point x="64" y="432" type="line"/>
      <point x="128" y="480"/>
      <point x="168" y="544"/>
      <point x="168" y="624" type="curve" smooth="yes"/>
      <point x="168" y="685"/>
      <point x="139" y="717"/>
      <point x="102" y="720" type="curve"/>
      <point x="102" y="720"/>
      <point x="101" y="720"/>
      <point x="101" y="720" type="curve"/>
      <point x="96" y="720"/>
      <point x="96" y="720"/>
      <point x="96" y="720" type="curve"/>
      <point x="60" y="720"/>
      <point x="32" y="692"/>
      <point x="32" y="656" type="curve" smooth="yes"/>
      <point x="32" y="620"/>
      <point x="60" y="592"/>
      <point x="96" y="592" type="curve" smooth="yes"/>
      <point x="99" y="592"/>
      <point x="101" y="592"/>
      <point x="104" y="593" type="curve"/>
      <point x="102" y="533"/>
      <point x="78" y="494"/>
      <point x="40" y="456" type="curve"/>
    </contour>
    <contour>
      <point x="272" y="432" type="line"/>
      <point x="336" y="480"/>
      <point x="376" y="544"/>
      <point x="376" y="624" type="curve" smooth="yes"/>
      <point x="376" y="685"/>
      <point x="347" y="717"/>
      <point x="310" y="720" type="curve"/>
      <point x="310" y="720"/>
      <point x="309" y="720"/>
      <point x="309" y="720" type="curve"/>
      <point x="304" y="720"/>
      <point x="304" y="720"/>
      <point x="304" y="720" type="curve"/>
      <point x="268" y="720"/>
      <point x="240" y="692"/>
      <point x="240" y="656" type="curve" smooth="yes"/>
      <point x="240" y="620"/>
      <point x="268" y="592"/>
      <point x="304" y="592" type="curve" smooth="yes"/>
      <point x="307" y="592"/>
      <point x="309" y="592"/>
      <point x="312" y="593" type="curve"/>
      <point x="310" y="533"/>
      <point x="286" y="494"/>
      <point x="248" y="456" type="curve"/>
    </contour>
  </outline>
</glyph>
<glyph name="dagger" format="1">
  <advance width="608"/>
  <unicode hex="2020"/>
  <outline>
    <contour>
      <point x="336" y="480" type="line"/>
      <point x="368" y="704" type="line"/>
      <point x="240" y="704" type="line"/>
      <point x="272" y="480" type="line"/>
      <point x="64" y="512" type="line"/>
      <point x="64" y="384" type="line"/>
      <point x="272" y="416" type="line"/>
      <point x="240" y="192" type="line"/>
      <point x="280" y="-192" type="line"/>
      <point x="328" y="-192" type="line"/>
      <point x="368" y="192" type="line"/>
      <point x="336" y="416" type="line"/>
      <point x="544" y="384" type="line"/>
      <point x="544" y="512" type="line"/>
    </contour>
  </outline>
</glyph>
<glyph name="ellipsis" format="1">
  <advance width="960"/>
  <unicode hex="2026"/>
  <outline>
    <contour>
      <point x="224" y="48" type="curve" smooth="yes"/>
      <point x="224" y="84"/>
      <point x="196" y="112"/>
      <point x="160" y="112" type="curve" smooth="yes"/>
      <point x="124" y="112"/>
      <point x="96" y="84"/>
      <point x="96" y="48" type="curve" smooth="yes"/>
      <point x="96" y="12"/>
      <point x="124" y="-16"/>
      <point x="160" y="-16" type="curve" smooth="yes"/>
      <point x="196" y="-16"/>
      <point x="224" y="12"/>
    </contour>
    <contour>
      <point x="544" y="48" type="curve" smooth="yes"/>
      <point x="544" y="84"/>
      <point x="516" y="112"/>
      <point x="480" y="112" type="curve" smooth="yes"/>
      <point x="444" y="112"/>
      <point x="416" y="84"/>
      <point x="416" y="48" type="curve" smooth="yes"/>
      <point x="416" y="12"/>
      <point x="444" y="-16"/>
      <point x="480" y="-16" type="curve" smooth="yes"/>
      <point x="516" y="-16"/>
      <point x="544" y="12"/>
    </contour>
    <contour>
      <point x="864" y="48" type="curve" smooth="yes"/>
      <point x="864" y="84"/>
      <point x="836" y="112"/>
      <point x="800" y="112" type="curve" smooth="yes"/>
      <point x="764" y="112"/>
      <point x="736" y="84"/>
      <point x="736" y="48" type="curve" smooth="yes"/>
      <point x="736" y="12"/>
      <point x="764" y="-16"/>
      <point x="800" y="-16" type="curve" smooth="yes"/>
      <point x="836" y="-16"/>
      <point x="864" y="12"/>
    </contour>
  </outline>
</glyph>
<glyph name="perthousand" format="1">
  <advance width="608"/>
  <unicode hex="2030"/>
  <outline>
    <contour>
      <point x="180" y="564" type="curve" smooth="yes"/>
      <point x="180" y="474"/>
      <point x="226" y="400"/>
      <point x="304" y="400" type="curve" smooth="yes"/>
      <point x="382" y="400"/>
      <point x="428" y="474"/>
      <point x="428" y="564" type="curve" smooth="yes"/>
      <point x="428" y="646"/>
      <point x="382" y="720"/>
      <point x="304" y="720" type="curve" smooth="yes"/>
      <point x="226" y="720"/>
      <point x="180" y="646"/>
    </contour>
    <contour>
      <point x="304" y="692" type="curve" smooth="yes"/>
      <point x="358" y="692"/>
      <point x="370" y="628"/>
      <point x="370" y="564" type="curve" smooth="yes"/>
      <point x="370" y="492"/>
      <point x="358" y="428"/>
      <point x="304" y="428" type="curve" smooth="yes"/>
      <point x="250" y="428"/>
      <point x="238" y="492"/>
      <point x="238" y="564" type="curve" smooth="yes"/>
      <point x="238" y="628"/>
      <point x="250" y="692"/>
    </contour>
    <contour>
      <point x="560" y="448" type="line"/>
      <point x="32" y="240" type="line"/>
      <point x="48" y="208" type="line"/>
      <point x="576" y="416" type="line"/>
    </contour>
    <contour>
      <point x="32" y="36" type="curve" smooth="yes"/>
      <point x="32" y="-54"/>
      <point x="78" y="-128"/>
      <point x="156" y="-128" type="curve" smooth="yes"/>
      <point x="234" y="-128"/>
      <point x="280" y="-54"/>
      <point x="280" y="36" type="curve" smooth="yes"/>
      <point x="280" y="118"/>
      <point x="234" y="192"/>
      <point x="156" y="192" type="curve" smooth="yes"/>
      <point x="78" y="192"/>
      <point x="32" y="118"/>
    </contour>
    <contour>
      <point x="328" y="36" type="curve" smooth="yes"/>
      <point x="328" y="-54"/>
      <point x="374" y="-128"/>
      <point x="452" y="-128" type="curve" smooth="yes"/>
      <point x="530" y="-128"/>
      <point x="576" y="-54"/>
      <point x="576" y="36" type="curve" smooth="yes"/>
      <point x="576" y="118"/>
      <point x="530" y="192"/>
      <point x="452" y="192" type="curve" smooth="yes"/>
      <point x="374" y="192"/>
      <point x="328" y="118"/>
    </contour>
    <contour>
      <point x="156" y="164" type="curve" smooth="yes"/>
      <point x="210" y="164"/>
      <point x="222" y="100"/>
      <point x="222" y="36" type="curve" smooth="yes"/>
      <point x="222" y="-36"/>
      <point x="210" y="-100"/>
      <point x="156" y="-100" type="curve" smooth="yes"/>
      <point x="102" y="-100"/>
      <point x="90" y="-36"/>
      <point x="90" y="36" type="curve" smooth="yes"/>
      <point x="90" y="100"/>
      <point x="102" y="164"/>
    </contour>
    <contour>
      <point x="452" y="164" type="curve" smooth="yes"/>
      <point x="506" y="164"/>
      <point x="518" y="100"/>
      <point x="518" y="36" type="curve" smooth="yes"/>
      <point x="518" y="-36"/>
      <point x="506" y="-100"/>
      <point x="452" y="-100" type="curve" smooth="yes"/>
      <point x="398" y="-100"/>
      <point x="386" y="-36"/>
      <point x="386" y="36" type="curve" smooth="yes"/>
      <point x="386" y="100"/>
      <point x="398" y="164"/>
    </contour>
  </outline>
</glyph>
<glyph name="guilsinglleft" format="1">
  <advance width="608"/>
  <unicode hex="2039"/>
  <outline>
    <contour>
      <point x="416" y="96" type="line"/>
      <point x="272" y="240" type="line"/>
      <point x="416" y="384" type="line"/>
      <point x="384" y="416" type="line"/>
      <point x="192" y="272" type="line"/>
      <point x="192" y="208" type="line"/>
      <point x="384" y="64" type="line"/>
    </contour>
  </outline>
</glyph>
<glyph name="uni2042" format="1">
  <advance width="633"/>
  <unicode hex="2042"/>
  <outline>
    <contour>
      <point x="399" y="406" type="curve"/>
      <point x="415" y="416"/>
      <point x="421" y="442"/>
      <point x="397" y="464" type="curve"/>
      <point x="341" y="510" type="line"/>
      <point x="413" y="514" type="line" smooth="yes"/>
      <point x="445" y="516"/>
      <point x="455" y="542"/>
      <point x="447" y="560" type="curve"/>
      <point x="441" y="578"/>
      <point x="421" y="594"/>
      <point x="393" y="576" type="curve" smooth="yes"/>
      <point x="333" y="540" type="line"/>
      <point x="351" y="608" type="line"/>
      <point x="357" y="638"/>
      <point x="337" y="656"/>
      <point x="317" y="656" type="curve" smooth="yes"/>
      <point x="297" y="656"/>
      <point x="277" y="638"/>
      <point x="285" y="608" type="curve" smooth="yes"/>
      <point x="301" y="540" type="line"/>
      <point x="243" y="576" type="line" smooth="yes"/>
      <point x="213" y="594"/>
      <point x="193" y="578"/>
      <point x="187" y="560" type="curve"/>
      <point x="179" y="542"/>
      <point x="189" y="516"/>
      <point x="221" y="514" type="curve" smooth="yes"/>
      <point x="291" y="510" type="line"/>
      <point x="237" y="466" type="line" smooth="yes"/>
      <point x="211" y="446"/>
      <point x="217" y="422"/>
      <point x="231" y="410" type="curve" smooth="yes"/>
      <point x="249" y="396"/>
      <point x="273" y="398"/>
      <point x="287" y="426" type="curve" smooth="yes"/>
      <point x="317" y="492" type="line"/>
      <point x="343" y="426" type="line"/>
      <point x="357" y="396"/>
      <point x="383" y="394"/>
    </contour>
    <contour>
      <point x="551" y="102" type="curve"/>
      <point x="567" y="112"/>
      <point x="573" y="138"/>
      <point x="549" y="160" type="curve"/>
      <point x="493" y="206" type="line"/>
      <point x="565" y="210" type="line" smooth="yes"/>
      <point x="597" y="212"/>
      <point x="607" y="238"/>
      <point x="599" y="256" type="curve"/>
      <point x="593" y="274"/>
      <point x="573" y="290"/>
      <point x="545" y="272" type="curve" smooth="yes"/>
      <point x="485" y="236" type="line"/>
      <point x="503" y="304" type="line"/>
      <point x="509" y="334"/>
      <point x="489" y="352"/>
      <point x="469" y="352" type="curve" smooth="yes"/>
      <point x="449" y="352"/>
      <point x="429" y="334"/>
      <point x="437" y="304" type="curve" smooth="yes"/>
      <point x="453" y="236" type="line"/>
      <point x="395" y="272" type="line" smooth="yes"/>
      <point x="365" y="290"/>
      <point x="345" y="274"/>
      <point x="339" y="256" type="curve"/>
      <point x="331" y="238"/>
      <point x="341" y="212"/>
      <point x="373" y="210" type="curve" smooth="yes"/>
      <point x="443" y="206" type="line"/>
      <point x="389" y="162" type="line" smooth="yes"/>
      <point x="363" y="142"/>
      <point x="369" y="118"/>
      <point x="383" y="106" type="curve" smooth="yes"/>
      <point x="401" y="92"/>
      <point x="425" y="94"/>
      <point x="439" y="122" type="curve" smooth="yes"/>
      <point x="469" y="188" type="line"/>
      <point x="495" y="122" type="line"/>
      <point x="509" y="92"/>
      <point x="535" y="90"/>
    </contour>
    <contour>
      <point x="247" y="102" type="curve"/>
      <point x="263" y="112"/>
      <point x="269" y="138"/>
      <point x="245" y="160" type="curve"/>
      <point x="189" y="206" type="line"/>
      <point x="261" y="210" type="line" smooth="yes"/>
      <point x="293" y="212"/>
      <point x="303" y="238"/>
      <point x="295" y="256" type="curve"/>
      <point x="289" y="274"/>
      <point x="269" y="290"/>
      <point x="241" y="272" type="curve" smooth="yes"/>
      <point x="181" y="236" type="line"/>
      <point x="199" y="304" type="line"/>
      <point x="205" y="334"/>
      <point x="185" y="352"/>
      <point x="165" y="352" type="curve" smooth="yes"/>
      <point x="145" y="352"/>
      <point x="125" y="334"/>
      <point x="133" y="304" type="curve" smooth="yes"/>
      <point x="149" y="236" type="line"/>
      <point x="91" y="272" type="line" smooth="yes"/>
      <point x="61" y="290"/>
      <point x="41" y="274"/>
      <point x="35" y="256" type="curve"/>
      <point x="27" y="238"/>
      <point x="37" y="212"/>
      <point x="69" y="210" type="curve" smooth="yes"/>
      <point x="139" y="206" type="line"/>
      <point x="85" y="162" type="line" smooth="yes"/>
      <point x="59" y="142"/>
      <point x="65" y="118"/>
      <point x="79" y="106" type="curve" smooth="yes"/>
      <point x="97" y="92"/>
      <point x="121" y="94"/>
      <point x="135" y="122" type="curve" smooth="yes"/>
      <point x="165" y="188" type="line"/>
      <point x="191" y="122" type="line"/>
      <point x="205" y="92"/>
      <point x="231" y="90"/>
    </contour>
  </outline>
</glyph>
<glyph name="Euro" format="1">
  <advance width="608"/>
  <unicode hex="20AC"/>
  <outline>
    <contour>
      <point x="544" y="256" type="curve"/>
      <point x="512" y="256" type="line"/>
      <point x="504" y="128"/>
      <point x="448" y="64"/>
      <point x="352" y="64" type="curve" smooth="yes"/>
      <point x="285" y="64"/>
      <point x="218" y="143"/>
      <point x="198" y="272" type="curve"/>
      <point x="400" y="272" type="line"/>
      <point x="432" y="320" type="line"/>
      <point x="193" y="320" type="line"/>
      <point x="192" y="330"/>
      <point x="192" y="341"/>
      <point x="192" y="352" type="curve" smooth="yes"/>
      <point x="192" y="357"/>
      <point x="192" y="363"/>
      <point x="192" y="368" type="curve"/>
      <point x="464" y="368" type="line"/>
      <point x="496" y="416" type="line"/>
      <point x="194" y="416" type="line"/>
      <point x="203" y="558"/>
      <point x="245" y="656"/>
      <point x="336" y="656" type="curve" smooth="yes"/>
      <point x="414" y="656"/>
      <point x="480" y="600"/>
      <point x="496" y="480" type="curve"/>
      <point x="528" y="480" type="line"/>
      <point x="528" y="704" type="line"/>
      <point x="496" y="704" type="line"/>
      <point x="460" y="668" type="line"/>
      <point x="430" y="701"/>
      <point x="389" y="720"/>
      <point x="336" y="720" type="curve" smooth="yes"/>
      <point x="200" y="720"/>
      <point x="102" y="592"/>
      <point x="83" y="416" type="curve"/>
      <point x="64" y="416" type="line"/>
      <point x="32" y="368" type="line"/>
      <point x="80" y="368" type="line"/>
      <point x="80" y="363"/>
      <point x="80" y="357"/>
      <point x="80" y="352" type="curve" smooth="yes"/>
      <point x="80" y="341"/>
      <point x="80" y="330"/>
      <point x="81" y="320" type="curve"/>
      <point x="64" y="320" type="line"/>
      <point x="32" y="272" type="line"/>
      <point x="85" y="272" type="line"/>
      <point x="108" y="104"/>
      <point x="204" y="-16"/>
      <point x="336" y="-16" type="curve" smooth="yes"/>
      <point x="464" y="-16"/>
      <point x="544" y="96"/>
    </contour>
  </outline>
</glyph>
<glyph name="fi" format="1">
  <advance width="520"/>
  <unicode hex="FB01"/>
  <outline>
    <contour>
      <point x="252" y="0" type="line"/>
      <point x="252" y="24" type="line"/>
      <point x="188" y="56" type="line"/>
      <point x="188" y="432" type="line"/>
      <point x="348" y="432" type="line"/>
      <point x="348" y="56" type="line"/>
      <point x="284" y="24" type="line"/>
      <point x="284" y="0" type="line"/>
      <point x="504" y="0" type="line"/>
      <point x="504" y="24" type="line"/>
      <point x="440" y="56" type="line"/>
      <point x="440" y="480" type="line"/>
      <point x="188" y="480" type="line"/>
      <point x="188" y="560" type="line" smooth="yes"/>
      <point x="188" y="640"/>
      <point x="232" y="672"/>
      <point x="280" y="672" type="curve" smooth="yes"/>
      <point x="320" y="672"/>
      <point x="336" y="656"/>
      <point x="336" y="616" type="curve" smooth="yes"/>
      <point x="336" y="584"/>
      <point x="360" y="560"/>
      <point x="392" y="560" type="curve" smooth="yes"/>
      <point x="424" y="560"/>
      <point x="448" y="584"/>
      <point x="448" y="616" type="curve" smooth="yes"/>
      <point x="448" y="688"/>
      <point x="360" y="720"/>
      <point x="296" y="720" type="curve" smooth="yes"/>
      <point x="164" y="720"/>
      <point x="96" y="640"/>
      <point x="96" y="512" type="curve" smooth="yes"/>
      <point x="96" y="480" type="line"/>
      <point x="32" y="480" type="line"/>
      <point x="32" y="424" type="line"/>
      <point x="96" y="424" type="line"/>
      <point x="96" y="56" type="line"/>
      <point x="32" y="24" type="line"/>
      <point x="32" y="0" type="line"/>
    </contour>
  </outline>
</glyph>
<glyph name="fl" format="1">
  <advance width="520"/>
  <unicode hex="FB02"/>
  <outline>
    <contour>
      <point x="96" y="480" type="line"/>
      <point x="32" y="480" type="line"/>
      <point x="32" y="424" type="line"/>
      <point x="96" y="424" type="line"/>
      <point x="96" y="56" type="line"/>
      <point x="32" y="24" type="line"/>
      <point x="32" y="0" type="line"/>
      <point x="252" y="0" type="line"/>
      <point x="252" y="24" type="line"/>
      <point x="188" y="56" type="line"/>
      <point x="188" y="432" type="line"/>
      <point x="284" y="432" type="line"/>
      <point x="284" y="480" type="line"/>
      <point x="188" y="480" type="line"/>
      <point x="188" y="576" type="line" smooth="yes"/>
      <point x="188" y="640"/>
      <point x="222" y="672"/>
      <point x="254" y="672" type="curve" smooth="yes"/>
      <point x="270" y="672"/>
      <point x="292" y="672"/>
      <point x="292" y="632" type="curve" smooth="yes"/>
      <point x="292" y="600"/>
      <point x="316" y="576"/>
      <point x="348" y="576" type="curve"/>
      <point x="348" y="56" type="line"/>
      <point x="284" y="24" type="line"/>
      <point x="284" y="0" type="line"/>
      <point x="504" y="0" type="line"/>
      <point x="504" y="24" type="line"/>
      <point x="440" y="56" type="line"/>
      <point x="440" y="704" type="line"/>
      <point x="348" y="704" type="line"/>
      <point x="320" y="715"/>
      <point x="289" y="719"/>
      <point x="270" y="720" type="curve"/>
      <point x="154" y="720"/>
      <point x="96" y="642"/>
      <point x="96" y="544" type="curve" smooth="yes"/>
    </contour>
  </outline>
</glyph>
<glyph name=".notdef" format="1">
  <advance width="608"/>
  <outline>
    <contour>
      <point x="608" y="704" type="line"/>
      <point x="0" y="704" type="line"/>
      <point x="0" y="0" type="line"/>
      <point x="608" y="0" type="line"/>
    </contour>
    <contour>
      <point x="432" y="240" type="line"/>
      <point x="304" y="368" type="line"/>
      <point x="176" y="240" type="line"/>
      <point x="112" y="304" type="line"/>
      <point x="240" y="432" type="line"/>
      <point x="112" y="560" type="line"/>
      <point x="176" y="624" type="line"/>
      <point x="304" y="496" type="line"/>
      <point x="432" y="624" type="line"/>
      <point x="496" y="560" type="line"/>
      <point x="368" y="432" type="line"/>
      <point x="496" y="304" type="line"/>
    </contour>
    <contour>
      <point x="496" y="80" type="line"/>
      <point x="512" y="80" type="line"/>
      <point x="512" y="64" type="line"/>
      <point x="480" y="64" type="line"/>
      <point x="480" y="128" type="line"/>
      <point x="464" y="128" type="line"/>
      <point x="464" y="144" type="line"/>
      <point x="480" y="144" type="line"/>
      <point x="480" y="176" type="line"/>
      <point x="496" y="176" type="line"/>
      <point x="496" y="144" type="line"/>
      <point x="512" y="144" type="line"/>
      <point x="512" y="128" type="line"/>
      <point x="496" y="128" type="line"/>
    </contour>
    <contour>
      <point x="240" y="160" type="line"/>
      <point x="240" y="176" type="line"/>
      <point x="256" y="176" type="line"/>
      <point x="256" y="160" type="line"/>
    </contour>
    <contour>
      <point x="528" y="176" type="line"/>
      <point x="544" y="176" type="line"/>
      <point x="544" y="64" type="line"/>
      <point x="528" y="64" type="line"/>
    </contour>
    <contour>
      <point x="176" y="64" type="line"/>
      <point x="176" y="144" type="line"/>
      <point x="224" y="144" type="line"/>
      <point x="224" y="64" type="line"/>
    </contour>
    <contour>
      <point x="336" y="80" type="line"/>
      <point x="368" y="80" type="line"/>
      <point x="368" y="64" type="line"/>
      <point x="320" y="64" type="line"/>
      <point x="320" y="144" type="line"/>
      <point x="368" y="144" type="line"/>
      <point x="368" y="96" type="line"/>
      <point x="336" y="96" type="line"/>
    </contour>
    <contour>
      <point x="416" y="80" type="line"/>
      <point x="416" y="96" type="line"/>
      <point x="384" y="96" type="line"/>
      <point x="384" y="144" type="line"/>
      <point x="432" y="144" type="line"/>
      <point x="432" y="128" type="line"/>
      <point x="400" y="128" type="line"/>
      <point x="400" y="112" type="line"/>
      <point x="432" y="112" type="line"/>
      <point x="432" y="64" type="line"/>
      <point x="384" y="64" type="line"/>
      <point x="384" y="80" type="line"/>
    </contour>
    <contour>
      <point x="240" y="144" type="line"/>
      <point x="256" y="144" type="line"/>
      <point x="256" y="64" type="line"/>
      <point x="240" y="64" type="line"/>
    </contour>
    <contour>
      <point x="304" y="80" type="line"/>
      <point x="304" y="64" type="line"/>
      <point x="272" y="64" type="line"/>
      <point x="272" y="144" type="line"/>
      <point x="304" y="144" type="line"/>
      <point x="304" y="128" type="line"/>
      <point x="288" y="128" type="line"/>
      <point x="288" y="80" type="line"/>
    </contour>
    <contour>
      <point x="80" y="80" type="line"/>
      <point x="96" y="80" type="line"/>
      <point x="96" y="64" type="line"/>
      <point x="64" y="64" type="line"/>
      <point x="64" y="144" type="line"/>
      <point x="96" y="144" type="line"/>
      <point x="96" y="128" type="line"/>
      <point x="80" y="128" type="line"/>
    </contour>
    <contour>
      <point x="336" y="112" type="line"/>
      <point x="352" y="112" type="line"/>
      <point x="352" y="128" type="line"/>
      <point x="336" y="128" type="line"/>
    </contour>
    <contour>
      <point x="208" y="128" type="line"/>
      <point x="192" y="128" type="line"/>
      <point x="192" y="80" type="line"/>
      <point x="208" y="80" type="line"/>
    </contour>
    <contour>
      <point x="144" y="128" type="line"/>
      <point x="128" y="128" type="line"/>
      <point x="128" y="64" type="line"/>
      <point x="112" y="64" type="line"/>
      <point x="112" y="176" type="line"/>
      <point x="128" y="176" type="line"/>
      <point x="128" y="144" type="line"/>
      <point x="160" y="144" type="line"/>
      <point x="160" y="64" type="line"/>
      <point x="144" y="64" type="line"/>
    </contour>
    <contour>
      <point x="448" y="64" type="line"/>
      <point x="448" y="80" type="line"/>
      <point x="464" y="80" type="line"/>
      <point x="464" y="64" type="line"/>
    </contour>
  </outline>
</glyph>
<glyph name="clocktower002," format="1">
  <advance width="1024"/>
  <outline>
    <contour>
      <point x="1136" y="-656" type="line"/>
      <point x="1136" y="1136" type="line"/>
      <point x="-112" y="1136" type="line"/>
      <point x="-112" y="-656" type="line"/>
    </contour>
    <contour>
      <point x="-96" y="-641" type="line"/>
      <point x="-96" y="1121" type="line"/>
      <point x="1120" y="1121" type="line"/>
      <point x="1120" y="-641" type="line"/>
    </contour>
    <contour>
      <point x="512" y="0" type="curve" smooth="yes"/>
      <point x="794" y="0"/>
      <point x="1024" y="230"/>
      <point x="1024" y="512" type="curve" smooth="yes"/>
      <point x="1024" y="794"/>
      <point x="794" y="1024"/>
      <point x="512" y="1024" type="curve" smooth="yes"/>
      <point x="230" y="1024"/>
      <point x="0" y="794"/>
      <point x="0" y="512" type="curve" smooth="yes"/>
      <point x="0" y="230"/>
      <point x="230" y="0"/>
    </contour>
    <contour>
      <point x="563" y="957" type="line"/>
      <point x="549" y="959"/>
      <point x="534" y="960"/>
      <point x="519" y="960" type="curve"/>
      <point x="519" y="1009" type="line"/>
      <point x="536" y="1009"/>
      <point x="553" y="1008"/>
      <point x="570" y="1006" type="curve"/>
    </contour>
    <contour>
      <point x="461" y="957" type="curve"/>
      <point x="454" y="1006" type="line"/>
      <point x="471" y="1008"/>
      <point x="488" y="1009"/>
      <point x="505" y="1009" type="curve"/>
      <point x="505" y="960" type="line"/>
      <point x="490" y="960"/>
      <point x="475" y="959"/>
    </contour>
    <contour>
      <point x="621" y="947" type="line"/>
      <point x="607" y="950"/>
      <point x="592" y="953"/>
      <point x="577" y="955" type="curve"/>
      <point x="584" y="1004" type="line"/>
      <point x="601" y="1001"/>
      <point x="618" y="998"/>
      <point x="634" y="993" type="curve"/>
    </contour>
    <contour>
      <point x="403" y="947" type="curve"/>
      <point x="390" y="993" type="line"/>
      <point x="406" y="998"/>
      <point x="423" y="1001"/>
      <point x="440" y="1004" type="curve"/>
      <point x="447" y="955" type="line"/>
      <point x="432" y="953"/>
      <point x="417" y="950"/>
    </contour>
    <contour>
      <point x="347" y="928" type="curve"/>
      <point x="329" y="973" type="line"/>
      <point x="345" y="979"/>
      <point x="361" y="985"/>
      <point x="377" y="990" type="curve"/>
      <point x="389" y="943" type="line"/>
      <point x="375" y="939"/>
      <point x="361" y="934"/>
    </contour>
    <contour>
      <point x="677" y="928" type="line"/>
      <point x="663" y="934"/>
      <point x="649" y="939"/>
      <point x="635" y="943" type="curve"/>
      <point x="647" y="990" type="line"/>
      <point x="663" y="985"/>
      <point x="679" y="979"/>
      <point x="695" y="973" type="curve"/>
    </contour>
    <contour>
      <point x="295" y="903" type="curve"/>
      <point x="270" y="945" type="line"/>
      <point x="285" y="953"/>
      <point x="300" y="961"/>
      <point x="316" y="968" type="curve"/>
      <point x="334" y="923" type="line"/>
      <point x="320" y="917"/>
      <point x="307" y="910"/>
    </contour>
    <contour>
      <point x="729" y="903" type="line"/>
      <point x="717" y="910"/>
      <point x="704" y="917"/>
      <point x="690" y="923" type="curve"/>
      <point x="708" y="968" type="line"/>
      <point x="724" y="961"/>
      <point x="739" y="953"/>
      <point x="754" y="945" type="curve"/>
    </contour>
    <contour>
      <point x="634" y="737" type="line"/>
      <point x="599" y="756"/>
      <point x="560" y="767"/>
      <point x="519" y="768" type="curve"/>
      <point x="519" y="945" type="line"/>
      <point x="592" y="944"/>
      <point x="661" y="924"/>
      <point x="722" y="890" type="curve"/>
    </contour>
    <contour>
      <point x="390" y="737" type="curve"/>
      <point x="302" y="890" type="line"/>
      <point x="363" y="924"/>
      <point x="432" y="944"/>
      <point x="505" y="945" type="curve"/>
      <point x="505" y="768" type="line"/>
      <point x="464" y="767"/>
      <point x="425" y="756"/>
    </contour>
    <contour>
      <point x="779" y="871" type="line"/>
      <point x="767" y="880"/>
      <point x="755" y="888"/>
      <point x="742" y="896" type="curve"/>
      <point x="766" y="937" type="line"/>
      <point x="780" y="929"/>
      <point x="794" y="919"/>
      <point x="808" y="909" type="curve"/>
    </contour>
    <contour>
      <point x="245" y="871" type="curve"/>
      <point x="216" y="909" type="line"/>
      <point x="230" y="919"/>
      <point x="244" y="929"/>
      <point x="258" y="937" type="curve"/>
      <point x="282" y="896" type="line"/>
      <point x="269" y="888"/>
      <point x="257" y="880"/>
    </contour>
    <contour>
      <point x="201" y="833" type="curve"/>
      <point x="167" y="867" type="line"/>
      <point x="179" y="879"/>
      <point x="192" y="890"/>
      <point x="206" y="901" type="curve"/>
      <point x="235" y="863" type="line"/>
      <point x="223" y="854"/>
      <point x="212" y="844"/>
    </contour>
    <contour>
      <point x="823" y="833" type="line"/>
      <point x="812" y="844"/>
      <point x="801" y="854"/>
      <point x="789" y="863" type="curve"/>
      <point x="818" y="901" type="line"/>
      <point x="832" y="890"/>
      <point x="845" y="879"/>
      <point x="857" y="867" type="curve"/>
    </contour>
    <contour>
      <point x="294" y="646" type="curve"/>
      <point x="142" y="734" type="line"/>
      <point x="179" y="794"/>
      <point x="230" y="846"/>
      <point x="290" y="882" type="curve"/>
      <point x="378" y="730" type="line"/>
      <point x="344" y="709"/>
      <point x="315" y="680"/>
    </contour>
    <contour>
      <point x="730" y="646" type="line"/>
      <point x="709" y="680"/>
      <point x="680" y="709"/>
      <point x="646" y="730" type="curve"/>
      <point x="734" y="882" type="line"/>
      <point x="794" y="846"/>
      <point x="845" y="794"/>
      <point x="882" y="734" type="curve"/>
    </contour>
    <contour>
      <point x="863" y="789" type="line"/>
      <point x="854" y="801"/>
      <point x="844" y="812"/>
      <point x="833" y="823" type="curve"/>
      <point x="867" y="857" type="line"/>
      <point x="879" y="845"/>
      <point x="890" y="832"/>
      <point x="901" y="818" type="curve"/>
    </contour>
    <contour>
      <point x="161" y="789" type="curve"/>
      <point x="123" y="818" type="line"/>
      <point x="134" y="832"/>
      <point x="145" y="845"/>
      <point x="157" y="857" type="curve"/>
      <point x="191" y="823" type="line"/>
      <point x="180" y="812"/>
      <point x="170" y="801"/>
    </contour>
    <contour>
      <point x="128" y="742" type="curve"/>
      <point x="87" y="766" type="line"/>
      <point x="96" y="780"/>
      <point x="105" y="794"/>
      <point x="115" y="808" type="curve"/>
      <point x="153" y="779" type="line"/>
      <point x="144" y="767"/>
      <point x="136" y="755"/>
    </contour>
    <contour>
      <point x="896" y="742" type="line"/>
      <point x="888" y="755"/>
      <point x="880" y="767"/>
      <point x="871" y="779" type="curve"/>
      <point x="909" y="808" type="line"/>
      <point x="919" y="794"/>
      <point x="928" y="780"/>
      <point x="937" y="766" type="curve"/>
    </contour>
    <contour>
      <point x="101" y="690" type="curve"/>
      <point x="57" y="708" type="line"/>
      <point x="64" y="723"/>
      <point x="71" y="739"/>
      <point x="80" y="753" type="curve"/>
      <point x="121" y="729" type="line"/>
      <point x="114" y="717"/>
      <point x="107" y="704"/>
    </contour>
    <contour>
      <point x="923" y="690" type="line"/>
      <point x="917" y="704"/>
      <point x="910" y="717"/>
      <point x="903" y="729" type="curve"/>
      <point x="944" y="753" type="line"/>
      <point x="953" y="739"/>
      <point x="960" y="723"/>
      <point x="967" y="708" type="curve"/>
    </contour>
    <contour>
      <point x="512" y="271" type="curve" smooth="yes"/>
      <point x="386" y="271"/>
      <point x="272" y="380"/>
      <point x="272" y="512" type="curve" smooth="yes"/>
      <point x="272" y="644"/>
      <point x="382" y="753"/>
      <point x="512" y="753" type="curve" smooth="yes"/>
      <point x="642" y="753"/>
      <point x="752" y="644"/>
      <point x="752" y="512" type="curve" smooth="yes"/>
      <point x="752" y="380"/>
      <point x="638" y="271"/>
    </contour>
    <contour>
      <point x="944" y="519" type="curve"/>
      <point x="768" y="519" type="line"/>
      <point x="767" y="561"/>
      <point x="756" y="599"/>
      <point x="737" y="634" type="curve"/>
      <point x="889" y="721" type="line"/>
      <point x="923" y="661"/>
      <point x="943" y="593"/>
    </contour>
    <contour>
      <point x="256" y="519" type="curve"/>
      <point x="80" y="519" type="line"/>
      <point x="81" y="592"/>
      <point x="101" y="661"/>
      <point x="135" y="721" type="curve"/>
      <point x="287" y="634" type="line"/>
      <point x="268" y="599"/>
      <point x="257" y="561"/>
    </contour>
    <contour>
      <point x="943" y="635" type="line"/>
      <point x="939" y="649"/>
      <point x="934" y="663"/>
      <point x="928" y="677" type="curve"/>
      <point x="972" y="695" type="line"/>
      <point x="979" y="679"/>
      <point x="984" y="663"/>
      <point x="989" y="647" type="curve"/>
    </contour>
    <contour>
      <point x="81" y="635" type="curve"/>
      <point x="35" y="647" type="line"/>
      <point x="40" y="663"/>
      <point x="45" y="679"/>
      <point x="52" y="695" type="curve"/>
      <point x="96" y="677" type="line"/>
      <point x="90" y="663"/>
      <point x="85" y="649"/>
    </contour>
    <contour>
      <point x="955" y="577" type="line"/>
      <point x="953" y="592"/>
      <point x="950" y="607"/>
      <point x="947" y="621" type="curve"/>
      <point x="993" y="634" type="line"/>
      <point x="997" y="617"/>
      <point x="1000" y="601"/>
      <point x="1003" y="584" type="curve"/>
    </contour>
    <contour>
      <point x="69" y="577" type="curve"/>
      <point x="21" y="584" type="line"/>
      <point x="24" y="601"/>
      <point x="27" y="617"/>
      <point x="31" y="634" type="curve"/>
      <point x="77" y="621" type="line"/>
      <point x="74" y="607"/>
      <point x="71" y="592"/>
    </contour>
    <contour>
      <point x="1008" y="519" type="curve"/>
      <point x="960" y="519" type="line"/>
      <point x="960" y="534"/>
      <point x="959" y="549"/>
      <point x="957" y="563" type="curve"/>
      <point x="1005" y="570" type="line"/>
      <point x="1007" y="553"/>
      <point x="1008" y="537"/>
    </contour>
    <contour>
      <point x="64" y="519" type="curve"/>
      <point x="16" y="519" type="line"/>
      <point x="16" y="536"/>
      <point x="17" y="553"/>
      <point x="19" y="570" type="curve"/>
      <point x="67" y="563" type="line"/>
      <point x="65" y="549"/>
      <point x="64" y="534"/>
    </contour>
    <contour>
      <point x="1005" y="454" type="curve"/>
      <point x="957" y="461" type="line"/>
      <point x="959" y="475"/>
      <point x="960" y="490"/>
      <point x="960" y="505" type="curve"/>
      <point x="1008" y="505" type="line"/>
      <point x="1008" y="488"/>
      <point x="1007" y="471"/>
    </contour>
    <contour>
      <point x="889" y="303" type="curve"/>
      <point x="737" y="390" type="line"/>
      <point x="756" y="425"/>
      <point x="767" y="463"/>
      <point x="768" y="505" type="curve"/>
      <point x="944" y="505" type="line"/>
      <point x="943" y="432"/>
      <point x="923" y="363"/>
    </contour>
    <contour>
      <point x="135" y="303" type="line"/>
      <point x="101" y="363"/>
      <point x="81" y="431"/>
      <point x="80" y="505" type="curve"/>
      <point x="256" y="505" type="line"/>
      <point x="257" y="463"/>
      <point x="268" y="425"/>
      <point x="287" y="390" type="curve"/>
    </contour>
    <contour>
      <point x="19" y="454" type="line"/>
      <point x="17" y="471"/>
      <point x="16" y="487"/>
      <point x="16" y="505" type="curve"/>
      <point x="64" y="505" type="line"/>
      <point x="64" y="490"/>
      <point x="65" y="475"/>
      <point x="67" y="461" type="curve"/>
    </contour>
    <contour>
      <point x="993" y="390" type="curve"/>
      <point x="947" y="403" type="line"/>
      <point x="950" y="417"/>
      <point x="953" y="432"/>
      <point x="955" y="447" type="curve"/>
      <point x="1003" y="440" type="line"/>
      <point x="1000" y="423"/>
      <point x="997" y="407"/>
    </contour>
    <contour>
      <point x="31" y="390" type="line"/>
      <point x="27" y="407"/>
      <point x="24" y="423"/>
      <point x="21" y="440" type="curve"/>
      <point x="69" y="447" type="line"/>
      <point x="71" y="432"/>
      <point x="74" y="417"/>
      <point x="77" y="403" type="curve"/>
    </contour>
    <contour>
      <point x="972" y="329" type="curve"/>
      <point x="928" y="347" type="line"/>
      <point x="934" y="361"/>
      <point x="939" y="375"/>
      <point x="943" y="389" type="curve"/>
      <point x="989" y="377" type="line"/>
      <point x="984" y="361"/>
      <point x="979" y="345"/>
    </contour>
    <contour>
      <point x="52" y="329" type="line"/>
      <point x="45" y="345"/>
      <point x="40" y="361"/>
      <point x="35" y="377" type="curve"/>
      <point x="81" y="389" type="line"/>
      <point x="85" y="375"/>
      <point x="90" y="361"/>
      <point x="96" y="347" type="curve"/>
    </contour>
    <contour>
      <point x="290" y="142" type="line"/>
      <point x="230" y="178"/>
      <point x="179" y="230"/>
      <point x="142" y="290" type="curve"/>
      <point x="294" y="378" type="line"/>
      <point x="315" y="344"/>
      <point x="344" y="315"/>
      <point x="378" y="294" type="curve"/>
    </contour>
    <contour>
      <point x="734" y="142" type="curve"/>
      <point x="646" y="294" type="line"/>
      <point x="680" y="315"/>
      <point x="709" y="344"/>
      <point x="730" y="378" type="curve"/>
      <point x="882" y="290" type="line"/>
      <point x="845" y="230"/>
      <point x="794" y="178"/>
    </contour>
    <contour>
      <point x="944" y="271" type="curve"/>
      <point x="903" y="295" type="line"/>
      <point x="910" y="307"/>
      <point x="917" y="320"/>
      <point x="923" y="334" type="curve"/>
      <point x="967" y="316" type="line"/>
      <point x="960" y="301"/>
      <point x="953" y="285"/>
    </contour>
    <contour>
      <point x="80" y="271" type="line"/>
      <point x="71" y="285"/>
      <point x="64" y="301"/>
      <point x="57" y="316" type="curve"/>
      <point x="101" y="334" type="line"/>
      <point x="107" y="320"/>
      <point x="114" y="307"/>
      <point x="121" y="295" type="curve"/>
    </contour>
    <contour>
      <point x="519" y="79" type="curve"/>
      <point x="519" y="256" type="line"/>
      <point x="560" y="257"/>
      <point x="599" y="268"/>
      <point x="634" y="287" type="curve"/>
      <point x="722" y="134" type="line"/>
      <point x="661" y="100"/>
      <point x="592" y="80"/>
    </contour>
    <contour>
      <point x="505" y="79" type="line"/>
      <point x="432" y="80"/>
      <point x="363" y="100"/>
      <point x="302" y="134" type="curve"/>
      <point x="390" y="287" type="line"/>
      <point x="425" y="268"/>
      <point x="464" y="257"/>
      <point x="505" y="256" type="curve"/>
    </contour>
    <contour>
      <point x="909" y="216" type="curve"/>
      <point x="871" y="245" type="line"/>
      <point x="880" y="257"/>
      <point x="888" y="269"/>
      <point x="896" y="282" type="curve"/>
      <point x="937" y="258" type="line"/>
      <point x="928" y="244"/>
      <point x="919" y="230"/>
    </contour>
    <contour>
      <point x="115" y="216" type="line"/>
      <point x="105" y="230"/>
      <point x="96" y="244"/>
      <point x="87" y="258" type="curve"/>
      <point x="128" y="282" type="line"/>
      <point x="136" y="269"/>
      <point x="144" y="257"/>
      <point x="153" y="245" type="curve"/>
    </contour>
    <contour>
      <point x="867" y="167" type="curve"/>
      <point x="833" y="201" type="line"/>
      <point x="844" y="212"/>
      <point x="854" y="223"/>
      <point x="863" y="235" type="curve"/>
      <point x="901" y="206" type="line"/>
      <point x="890" y="192"/>
      <point x="879" y="179"/>
    </contour>
    <contour>
      <point x="157" y="167" type="line"/>
      <point x="145" y="179"/>
      <point x="134" y="192"/>
      <point x="123" y="206" type="curve"/>
      <point x="161" y="235" type="line"/>
      <point x="170" y="223"/>
      <point x="180" y="212"/>
      <point x="191" y="201" type="curve"/>
    </contour>
    <contour>
      <point x="206" y="123" type="line"/>
      <point x="192" y="134"/>
      <point x="179" y="145"/>
      <point x="167" y="157" type="curve"/>
      <point x="201" y="191" type="line"/>
      <point x="212" y="180"/>
      <point x="223" y="170"/>
      <point x="235" y="161" type="curve"/>
    </contour>
    <contour>
      <point x="818" y="123" type="curve"/>
      <point x="789" y="161" type="line"/>
      <point x="801" y="170"/>
      <point x="812" y="180"/>
      <point x="823" y="191" type="curve"/>
      <point x="857" y="157" type="line"/>
      <point x="845" y="145"/>
      <point x="832" y="134"/>
    </contour>
    <contour>
      <point x="766" y="87" type="curve"/>
      <point x="742" y="128" type="line"/>
      <point x="755" y="136"/>
      <point x="767" y="144"/>
      <point x="779" y="153" type="curve"/>
      <point x="808" y="115" type="line"/>
      <point x="794" y="105"/>
      <point x="780" y="95"/>
    </contour>
    <contour>
      <point x="258" y="87" type="line"/>
      <point x="244" y="95"/>
      <point x="230" y="105"/>
      <point x="216" y="115" type="curve"/>
      <point x="245" y="153" type="line"/>
      <point x="257" y="144"/>
      <point x="269" y="136"/>
      <point x="282" y="128" type="curve"/>
    </contour>
    <contour>
      <point x="708" y="56" type="curve"/>
      <point x="690" y="101" type="line"/>
      <point x="704" y="107"/>
      <point x="717" y="114"/>
      <point x="729" y="121" type="curve"/>
      <point x="754" y="79" type="line"/>
      <point x="739" y="71"/>
      <point x="724" y="63"/>
    </contour>
    <contour>
      <point x="316" y="56" type="line"/>
      <point x="300" y="63"/>
      <point x="285" y="71"/>
      <point x="270" y="79" type="curve"/>
      <point x="295" y="121" type="line"/>
      <point x="307" y="114"/>
      <point x="320" y="107"/>
      <point x="334" y="101" type="curve"/>
    </contour>
    <contour>
      <point x="647" y="34" type="curve"/>
      <point x="635" y="81" type="line"/>
      <point x="649" y="85"/>
      <point x="663" y="90"/>
      <point x="677" y="96" type="curve"/>
      <point x="695" y="51" type="line"/>
      <point x="679" y="45"/>
      <point x="663" y="39"/>
    </contour>
    <contour>
      <point x="377" y="34" type="line"/>
      <point x="361" y="39"/>
      <point x="345" y="45"/>
      <point x="329" y="51" type="curve"/>
      <point x="347" y="96" type="line"/>
      <point x="361" y="90"/>
      <point x="375" y="85"/>
      <point x="389" y="81" type="curve"/>
    </contour>
    <contour>
      <point x="440" y="20" type="line"/>
      <point x="423" y="23"/>
      <point x="406" y="26"/>
      <point x="390" y="31" type="curve"/>
      <point x="403" y="77" type="line"/>
      <point x="417" y="74"/>
      <point x="432" y="71"/>
      <point x="447" y="69" type="curve"/>
    </contour>
    <contour>
      <point x="584" y="20" type="curve"/>
      <point x="577" y="69" type="line"/>
      <point x="592" y="71"/>
      <point x="607" y="74"/>
      <point x="621" y="77" type="curve"/>
      <point x="634" y="31" type="line"/>
      <point x="618" y="26"/>
      <point x="601" y="23"/>
    </contour>
    <contour>
      <point x="519" y="15" type="curve"/>
      <point x="519" y="64" type="line"/>
      <point x="534" y="64"/>
      <point x="549" y="65"/>
      <point x="563" y="67" type="curve"/>
      <point x="570" y="18" type="line"/>
      <point x="553" y="16"/>
      <point x="536" y="15"/>
    </contour>
    <contour>
      <point x="505" y="15" type="line"/>
      <point x="488" y="15"/>
      <point x="471" y="16"/>
      <point x="454" y="18" type="curve"/>
      <point x="461" y="67" type="line"/>
      <point x="475" y="65"/>
      <point x="490" y="64"/>
      <point x="505" y="64" type="curve"/>
    </contour>
  </outline>
</glyph>
<glyph name="clocktower005," format="1">
  <advance width="1024"/>
  <outline>
    <contour>
      <point x="512" y="0" type="curve" smooth="yes"/>
      <point x="794" y="0"/>
      <point x="1024" y="230"/>
      <point x="1024" y="512" type="curve" smooth="yes"/>
      <point x="1024" y="794"/>
      <point x="794" y="1024"/>
      <point x="512" y="1024" type="curve" smooth="yes"/>
      <point x="230" y="1024"/>
      <point x="0" y="794"/>
      <point x="0" y="512" type="curve" smooth="yes"/>
      <point x="0" y="230"/>
      <point x="230" y="0"/>
    </contour>
    <contour>
      <point x="626" y="741" type="line"/>
      <point x="596" y="756"/>
      <point x="563" y="765"/>
      <point x="528" y="767" type="curve"/>
      <point x="528" y="992" type="line"/>
      <point x="604" y="989"/>
      <point x="675" y="969"/>
      <point x="738" y="935" type="curve"/>
    </contour>
    <contour>
      <point x="398" y="741" type="curve"/>
      <point x="286" y="935" type="line"/>
      <point x="349" y="969"/>
      <point x="420" y="989"/>
      <point x="496" y="992" type="curve"/>
      <point x="496" y="767" type="line"/>
      <point x="461" y="765"/>
      <point x="428" y="756"/>
    </contour>
    <contour>
      <point x="299" y="654" type="curve"/>
      <point x="105" y="766" type="line"/>
      <point x="144" y="828"/>
      <point x="196" y="880"/>
      <point x="258" y="919" type="curve"/>
      <point x="370" y="725" type="line"/>
      <point x="342" y="706"/>
      <point x="318" y="682"/>
    </contour>
    <contour>
      <point x="725" y="654" type="line"/>
      <point x="706" y="682"/>
      <point x="682" y="706"/>
      <point x="654" y="725" type="curve"/>
      <point x="766" y="919" type="line"/>
      <point x="828" y="880"/>
      <point x="880" y="828"/>
      <point x="919" y="766" type="curve"/>
    </contour>
    <contour>
      <point x="257" y="528" type="curve"/>
      <point x="32" y="528" type="line"/>
      <point x="35" y="604"/>
      <point x="55" y="675"/>
      <point x="89" y="738" type="curve"/>
      <point x="283" y="626" type="line"/>
      <point x="268" y="596"/>
      <point x="259" y="563"/>
    </contour>
    <contour>
      <point x="992" y="528" type="curve"/>
      <point x="767" y="528" type="line"/>
      <point x="765" y="563"/>
      <point x="756" y="596"/>
      <point x="741" y="626" type="curve"/>
      <point x="935" y="738" type="line"/>
      <point x="969" y="675"/>
      <point x="989" y="604"/>
    </contour>
    <contour>
      <point x="512" y="288" type="curve" smooth="yes"/>
      <point x="389" y="288"/>
      <point x="288" y="389"/>
      <point x="288" y="512" type="curve" smooth="yes"/>
      <point x="288" y="635"/>
      <point x="389" y="736"/>
      <point x="512" y="736" type="curve" smooth="yes"/>
      <point x="635" y="736"/>
      <point x="736" y="635"/>
      <point x="736" y="512" type="curve" smooth="yes"/>
      <point x="736" y="389"/>
      <point x="635" y="288"/>
    </contour>
    <contour>
      <point x="935" y="286" type="curve"/>
      <point x="741" y="398" type="line"/>
      <point x="756" y="428"/>
      <point x="765" y="461"/>
      <point x="767" y="496" type="curve"/>
      <point x="992" y="496" type="line"/>
      <point x="989" y="420"/>
      <point x="969" y="349"/>
    </contour>
    <contour>
      <point x="89" y="286" type="line"/>
      <point x="55" y="349"/>
      <point x="35" y="420"/>
      <point x="32" y="496" type="curve"/>
      <point x="257" y="496" type="line"/>
      <point x="259" y="461"/>
      <point x="268" y="428"/>
      <point x="283" y="398" type="curve"/>
    </contour>
    <contour>
      <point x="766" y="105" type="curve"/>
      <point x="654" y="299" type="line"/>
      <point x="682" y="318"/>
      <point x="706" y="342"/>
      <point x="725" y="370" type="curve"/>
      <point x="919" y="258" type="line"/>
      <point x="880" y="196"/>
      <point x="828" y="144"/>
    </contour>
    <contour>
      <point x="258" y="105" type="line"/>
      <point x="196" y="144"/>
      <point x="144" y="196"/>
      <point x="105" y="258" type="curve"/>
      <point x="299" y="370" type="line"/>
      <point x="318" y="342"/>
      <point x="342" y="318"/>
      <point x="370" y="299" type="curve"/>
    </contour>
    <contour>
      <point x="496" y="32" type="line"/>
      <point x="420" y="35"/>
      <point x="349" y="55"/>
      <point x="286" y="89" type="curve"/>
      <point x="398" y="283" type="line"/>
      <point x="428" y="268"/>
      <point x="461" y="259"/>
      <point x="496" y="257" type="curve"/>
    </contour>
    <contour>
      <point x="528" y="32" type="curve"/>
      <point x="528" y="257" type="line"/>
      <point x="563" y="259"/>
      <point x="596" y="268"/>
      <point x="626" y="283" type="curve"/>
      <point x="738" y="89" type="line"/>
      <point x="675" y="55"/>
      <point x="604" y="35"/>
    </contour>
  </outline>
</glyph>
<glyph name="clocktower006" format="1">
  <advance width="1024"/>
  <outline>
    <contour>
      <point x="626" y="741" type="line"/>
      <point x="596" y="756"/>
      <point x="563" y="765"/>
      <point x="528" y="767" type="curve"/>
      <point x="528" y="992" type="line"/>
      <point x="604" y="989"/>
      <point x="675" y="969"/>
      <point x="738" y="935" type="curve"/>
    </contour>
    <contour>
      <point x="398" y="741" type="curve"/>
      <point x="286" y="935" type="line"/>
      <point x="349" y="969"/>
      <point x="420" y="989"/>
      <point x="496" y="992" type="curve"/>
      <point x="496" y="767" type="line"/>
      <point x="461" y="765"/>
      <point x="428" y="756"/>
    </contour>
    <contour>
      <point x="299" y="654" type="curve"/>
      <point x="105" y="766" type="line"/>
      <point x="144" y="828"/>
      <point x="196" y="880"/>
      <point x="258" y="919" type="curve"/>
      <point x="370" y="725" type="line"/>
      <point x="342" y="706"/>
      <point x="318" y="682"/>
    </contour>
    <contour>
      <point x="725" y="654" type="line"/>
      <point x="706" y="682"/>
      <point x="682" y="706"/>
      <point x="654" y="725" type="curve"/>
      <point x="766" y="919" type="line"/>
      <point x="828" y="880"/>
      <point x="880" y="828"/>
      <point x="919" y="766" type="curve"/>
    </contour>
    <contour>
      <point x="257" y="528" type="curve"/>
      <point x="32" y="528" type="line"/>
      <point x="35" y="604"/>
      <point x="55" y="675"/>
      <point x="89" y="738" type="curve"/>
      <point x="283" y="626" type="line"/>
      <point x="268" y="596"/>
      <point x="259" y="563"/>
    </contour>
    <contour>
      <point x="992" y="528" type="curve"/>
      <point x="767" y="528" type="line"/>
      <point x="765" y="563"/>
      <point x="756" y="596"/>
      <point x="741" y="626" type="curve"/>
      <point x="935" y="738" type="line"/>
      <point x="969" y="675"/>
      <point x="989" y="604"/>
    </contour>
    <contour>
      <point x="935" y="286" type="curve"/>
      <point x="741" y="398" type="line"/>
      <point x="756" y="428"/>
      <point x="765" y="461"/>
      <point x="767" y="496" type="curve"/>
      <point x="992" y="496" type="line"/>
      <point x="989" y="420"/>
      <point x="969" y="349"/>
    </contour>
    <contour>
      <point x="89" y="286" type="line"/>
      <point x="55" y="349"/>
      <point x="35" y="420"/>
      <point x="32" y="496" type="curve"/>
      <point x="257" y="496" type="line"/>
      <point x="259" y="461"/>
      <point x="268" y="428"/>
      <point x="283" y="398" type="curve"/>
    </contour>
    <contour>
      <point x="766" y="105" type="curve"/>
      <point x="654" y="299" type="line"/>
      <point x="682" y="318"/>
      <point x="706" y="342"/>
      <point x="725" y="370" type="curve"/>
      <point x="919" y="258" type="line"/>
      <point x="880" y="196"/>
      <point x="828" y="144"/>
    </contour>
    <contour>
      <point x="258" y="105" type="line"/>
      <point x="196" y="144"/>
      <point x="144" y="196"/>
      <point x="105" y="258" type="curve"/>
      <point x="299" y="370" type="line"/>
      <point x="318" y="342"/>
      <point x="342" y="318"/>
      <point x="370" y="299" type="curve"/>
    </contour>
    <contour>
      <point x="496" y="304" type="line"/>
      <point x="496" y="289" type="line"/>
      <point x="467" y="291"/>
      <point x="439" y="298"/>
      <point x="414" y="311" type="curve"/>
      <point x="422" y="324" type="line"/>
      <point x="394" y="340" type="line"/>
      <point x="386" y="327" type="line"/>
      <point x="363" y="343"/>
      <point x="343" y="363"/>
      <point x="327" y="386" type="curve"/>
      <point x="340" y="394" type="line"/>
      <point x="324" y="422" type="line"/>
      <point x="311" y="414" type="line"/>
      <point x="298" y="439"/>
      <point x="291" y="467"/>
      <point x="289" y="496" type="curve"/>
      <point x="304" y="496" type="line"/>
      <point x="304" y="528" type="line"/>
      <point x="289" y="528" type="line"/>
      <point x="291" y="557"/>
      <point x="298" y="585"/>
      <point x="311" y="610" type="curve"/>
      <point x="324" y="602" type="line"/>
      <point x="340" y="630" type="line"/>
      <point x="327" y="638" type="line"/>
      <point x="343" y="661"/>
      <point x="363" y="681"/>
      <point x="386" y="697" type="curve"/>
      <point x="394" y="684" type="line"/>
      <point x="422" y="700" type="line"/>
      <point x="414" y="713" type="line"/>
      <point x="439" y="726"/>
      <point x="467" y="733"/>
      <point x="496" y="735" type="curve"/>
      <point x="496" y="720" type="line"/>
      <point x="528" y="720" type="line"/>
      <point x="528" y="735" type="line"/>
      <point x="557" y="733"/>
      <point x="585" y="726"/>
      <point x="610" y="713" type="curve"/>
      <point x="602" y="700" type="line"/>
      <point x="630" y="684" type="line"/>
      <point x="638" y="697" type="line"/>
      <point x="661" y="681"/>
      <point x="681" y="661"/>
      <point x="697" y="638" type="curve"/>
      <point x="684" y="630" type="line"/>
      <point x="700" y="602" type="line"/>
      <point x="713" y="610" type="line"/>
      <point x="726" y="585"/>
      <point x="733" y="557"/>
      <point x="735" y="528" type="curve"/>
      <point x="720" y="528" type="line"/>
      <point x="720" y="496" type="line"/>
      <point x="735" y="496" type="line"/>
      <point x="733" y="467"/>
      <point x="726" y="439"/>
      <point x="713" y="414" type="curve"/>
      <point x="700" y="422" type="line"/>
      <point x="684" y="394" type="line"/>
      <point x="697" y="386" type="line"/>
      <point x="681" y="363"/>
      <point x="661" y="343"/>
      <point x="638" y="327" type="curve"/>
      <point x="630" y="340" type="line"/>
      <point x="602" y="324" type="line"/>
      <point x="610" y="311" type="line"/>
      <point x="585" y="298"/>
      <point x="557" y="291"/>
      <point x="528" y="289" type="curve"/>
      <point x="528" y="304" type="line"/>
    </contour>
    <contour>
      <point x="496" y="32" type="line"/>
      <point x="420" y="35"/>
      <point x="349" y="55"/>
      <point x="286" y="89" type="curve"/>
      <point x="398" y="283" type="line"/>
      <point x="428" y="268"/>
      <point x="461" y="259"/>
      <point x="496" y="257" type="curve"/>
    </contour>
    <contour>
      <point x="528" y="32" type="curve"/>
      <point x="528" y="257" type="line"/>
      <point x="563" y="259"/>
      <point x="596" y="268"/>
      <point x="626" y="283" type="curve"/>
      <point x="738" y="89" type="line"/>
      <point x="675" y="55"/>
      <point x="604" y="35"/>
    </contour>
    <contour>
      <point x="762" y="47" type="line"/>
      <point x="790" y="63" type="line"/>
      <point x="782" y="77" type="line"/>
      <point x="849" y="119"/>
      <point x="905" y="175"/>
      <point x="947" y="242" type="curve"/>
      <point x="961" y="234" type="line"/>
      <point x="977" y="262" type="line"/>
      <point x="963" y="270" type="line"/>
      <point x="999" y="338"/>
      <point x="1021" y="414"/>
      <point x="1024" y="496" type="curve"/>
      <point x="1040" y="496" type="line"/>
      <point x="1040" y="528" type="line"/>
      <point x="1024" y="528" type="line"/>
      <point x="1021" y="610"/>
      <point x="1000" y="686"/>
      <point x="963" y="754" type="curve"/>
      <point x="977" y="762" type="line"/>
      <point x="961" y="790" type="line"/>
      <point x="947" y="782" type="line"/>
      <point x="905" y="849"/>
      <point x="849" y="905"/>
      <point x="782" y="947" type="curve"/>
      <point x="790" y="961" type="line"/>
      <point x="762" y="977" type="line"/>
      <point x="754" y="963" type="line"/>
      <point x="686" y="1000"/>
      <point x="609" y="1021"/>
      <point x="528" y="1024" type="curve"/>
      <point x="528" y="1040" type="line"/>
      <point x="496" y="1040" type="line"/>
      <point x="496" y="1024" type="line"/>
      <point x="415" y="1021"/>
      <point x="338" y="1000"/>
      <point x="270" y="963" type="curve"/>
      <point x="262" y="977" type="line"/>
      <point x="234" y="961" type="line"/>
      <point x="242" y="947" type="line"/>
      <point x="175" y="905"/>
      <point x="119" y="849"/>
      <point x="77" y="782" type="curve"/>
      <point x="63" y="790" type="line"/>
      <point x="47" y="762" type="line"/>
      <point x="61" y="754" type="line"/>
      <point x="25" y="686"/>
      <point x="3" y="610"/>
      <point x="0" y="528" type="curve"/>
      <point x="-16" y="528" type="line"/>
      <point x="-16" y="496" type="line"/>
      <point x="0" y="496" type="line"/>
      <point x="3" y="414"/>
      <point x="24" y="338"/>
      <point x="61" y="270" type="curve"/>
      <point x="47" y="262" type="line"/>
      <point x="63" y="234" type="line"/>
      <point x="77" y="242" type="line"/>
      <point x="119" y="175"/>
      <point x="175" y="119"/>
      <point x="242" y="77" type="curve"/>
      <point x="234" y="63" type="line"/>
      <point x="262" y="47" type="line"/>
      <point x="270" y="61" type="line"/>
      <point x="338" y="24"/>
      <point x="415" y="3"/>
      <point x="496" y="0" type="curve"/>
      <point x="496" y="-16" type="line"/>
      <point x="528" y="-16" type="line"/>
      <point x="528" y="0" type="line"/>
      <point x="609" y="3"/>
      <point x="686" y="24"/>
      <point x="754" y="61" type="curve"/>
    </contour>
  </outline>
</glyph>
<glyph name="clocktower009" format="1">
  <advance width="1024"/>
  <outline>
    <contour>
      <point x="512" y="0" type="curve" smooth="yes"/>
      <point x="794" y="0"/>
      <point x="1024" y="230"/>
      <point x="1024" y="512" type="curve" smooth="yes"/>
      <point x="1024" y="794"/>
      <point x="794" y="1024"/>
      <point x="512" y="1024" type="curve" smooth="yes"/>
      <point x="230" y="1024"/>
      <point x="0" y="794"/>
      <point x="0" y="512" type="curve" smooth="yes"/>
      <point x="0" y="230"/>
      <point x="230" y="0"/>
    </contour>
    <contour>
      <point x="394" y="749" type="line"/>
      <point x="290" y="929" type="line"/>
      <point x="298" y="941" type="line"/>
      <point x="354" y="970"/>
      <point x="416" y="987"/>
      <point x="482" y="991" type="curve"/>
      <point x="496" y="984" type="line"/>
      <point x="496" y="776" type="line"/>
      <point x="474" y="765" type="line"/>
      <point x="455" y="762"/>
      <point x="436" y="757"/>
      <point x="419" y="750" type="curve"/>
    </contour>
    <contour>
      <point x="630" y="749" type="line"/>
      <point x="605" y="750" type="line"/>
      <point x="588" y="757"/>
      <point x="569" y="762"/>
      <point x="550" y="765" type="curve"/>
      <point x="528" y="776" type="line"/>
      <point x="528" y="984" type="line"/>
      <point x="542" y="991" type="line"/>
      <point x="608" y="987"/>
      <point x="670" y="970"/>
      <point x="726" y="941" type="curve"/>
      <point x="734" y="929" type="line"/>
    </contour>
    <contour>
      <point x="291" y="658" type="line"/>
      <point x="111" y="762" type="line"/>
      <point x="112" y="776" type="line"/>
      <point x="148" y="830"/>
      <point x="194" y="876"/>
      <point x="248" y="912" type="curve"/>
      <point x="262" y="913" type="line"/>
      <point x="366" y="733" type="line"/>
      <point x="351" y="711" type="line"/>
      <point x="337" y="700"/>
      <point x="324" y="687"/>
      <point x="313" y="673" type="curve"/>
    </contour>
    <contour>
      <point x="733" y="658" type="line"/>
      <point x="711" y="673" type="line"/>
      <point x="700" y="687"/>
      <point x="687" y="700"/>
      <point x="673" y="711" type="curve"/>
      <point x="658" y="733" type="line"/>
      <point x="762" y="913" type="line"/>
      <point x="776" y="912" type="line"/>
      <point x="830" y="876"/>
      <point x="876" y="830"/>
      <point x="912" y="776" type="curve"/>
      <point x="913" y="762" type="line"/>
    </contour>
    <contour>
      <point x="512" y="288" type="curve" smooth="yes"/>
      <point x="389" y="288"/>
      <point x="288" y="389"/>
      <point x="288" y="512" type="curve" smooth="yes"/>
      <point x="288" y="635"/>
      <point x="389" y="736"/>
      <point x="512" y="736" type="curve" smooth="yes"/>
      <point x="635" y="736"/>
      <point x="736" y="635"/>
      <point x="736" y="512" type="curve" smooth="yes"/>
      <point x="736" y="389"/>
      <point x="635" y="288"/>
    </contour>
    <contour>
      <point x="40" y="528" type="line"/>
      <point x="33" y="542" type="line"/>
      <point x="37" y="608"/>
      <point x="54" y="670"/>
      <point x="83" y="726" type="curve"/>
      <point x="95" y="734" type="line"/>
      <point x="275" y="630" type="line"/>
      <point x="274" y="605" type="line"/>
      <point x="267" y="588"/>
      <point x="262" y="569"/>
      <point x="259" y="550" type="curve"/>
      <point x="248" y="528" type="line"/>
    </contour>
    <contour>
      <point x="776" y="528" type="line"/>
      <point x="765" y="550" type="line"/>
      <point x="762" y="569"/>
      <point x="757" y="588"/>
      <point x="750" y="605" type="curve"/>
      <point x="749" y="630" type="line"/>
      <point x="929" y="734" type="line"/>
      <point x="941" y="726" type="line"/>
      <point x="970" y="670"/>
      <point x="987" y="608"/>
      <point x="991" y="542" type="curve"/>
      <point x="984" y="528" type="line"/>
    </contour>
    <contour>
      <point x="95" y="290" type="line"/>
      <point x="83" y="298" type="line"/>
      <point x="54" y="354"/>
      <point x="37" y="416"/>
      <point x="33" y="482" type="curve"/>
      <point x="40" y="496" type="line"/>
      <point x="248" y="496" type="line"/>
      <point x="259" y="474" type="line"/>
      <point x="262" y="455"/>
      <point x="267" y="436"/>
      <point x="274" y="419" type="curve"/>
      <point x="275" y="394" type="line"/>
    </contour>
    <contour>
      <point x="929" y="290" type="line"/>
      <point x="749" y="394" type="line"/>
      <point x="750" y="419" type="line"/>
      <point x="757" y="436"/>
      <point x="762" y="455"/>
      <point x="765" y="474" type="curve"/>
      <point x="776" y="496" type="line"/>
      <point x="984" y="496" type="line"/>
      <point x="991" y="482" type="line"/>
      <point x="987" y="416"/>
      <point x="970" y="354"/>
      <point x="941" y="298" type="curve"/>
    </contour>
    <contour>
      <point x="262" y="111" type="line"/>
      <point x="248" y="112" type="line"/>
      <point x="194" y="148"/>
      <point x="148" y="194"/>
      <point x="112" y="248" type="curve"/>
      <point x="111" y="262" type="line"/>
      <point x="291" y="366" type="line"/>
      <point x="313" y="351" type="line"/>
      <point x="324" y="337"/>
      <point x="337" y="324"/>
      <point x="351" y="313" type="curve"/>
      <point x="366" y="291" type="line"/>
    </contour>
    <contour>
      <point x="762" y="111" type="line"/>
      <point x="658" y="291" type="line"/>
      <point x="673" y="313" type="line"/>
      <point x="687" y="324"/>
      <point x="700" y="337"/>
      <point x="711" y="351" type="curve"/>
      <point x="733" y="366" type="line"/>
      <point x="913" y="262" type="line"/>
      <point x="912" y="248" type="line"/>
      <point x="876" y="194"/>
      <point x="830" y="148"/>
      <point x="776" y="112" type="curve"/>
    </contour>
    <contour>
      <point x="290" y="95" type="line"/>
      <point x="394" y="275" type="line"/>
      <point x="419" y="274" type="line"/>
      <point x="436" y="267"/>
      <point x="455" y="262"/>
      <point x="474" y="259" type="curve"/>
      <point x="496" y="248" type="line"/>
      <point x="496" y="40" type="line"/>
      <point x="482" y="33" type="line"/>
      <point x="416" y="37"/>
      <point x="354" y="54"/>
      <point x="298" y="83" type="curve"/>
    </contour>
    <contour>
      <point x="528" y="40" type="line"/>
      <point x="528" y="248" type="line"/>
      <point x="550" y="259" type="line"/>
      <point x="569" y="262"/>
      <point x="588" y="267"/>
      <point x="605" y="274" type="curve"/>
      <point x="630" y="275" type="line"/>
      <point x="734" y="95" type="line"/>
      <point x="726" y="83" type="line"/>
      <point x="670" y="54"/>
      <point x="608" y="37"/>
      <point x="542" y="33" type="curve"/>
    </contour>
  </outline>
</glyph>
